<svg width="22" height="22" viewBox="0 0 22 22" fill="none" xmlns="http://www.w3.org/2000/svg">
<path d="M11.2159 5.29701C8.1883 5.29701 5.74626 7.73905 5.74626 10.7667C5.74626 13.7941 8.1883 16.2361 11.2159 16.2361C14.2434 16.2361 16.6855 13.7941 16.6855 10.7667C16.6855 7.73905 14.2434 5.29701 11.2159 5.29701ZM11.2159 14.3225C9.25939 14.3225 7.65991 12.7279 7.65991 10.7667C7.65991 8.80534 9.25459 7.21066 11.2159 7.21066C13.1771 7.21066 14.7718 8.80534 14.7718 10.7667C14.7718 12.7279 13.1723 14.3225 11.2159 14.3225ZM18.185 5.07328C18.185 5.78257 17.6137 6.34905 16.9093 6.34905C16.1999 6.34905 15.6334 5.77781 15.6334 5.07328C15.6334 4.36876 16.2047 3.79752 16.9093 3.79752C17.6137 3.79752 18.185 4.36876 18.185 5.07328ZM21.8075 6.36809C21.7266 4.65913 21.3363 3.14536 20.0843 1.89816C18.8371 0.650955 17.3234 0.260608 15.6143 0.174915C13.8531 0.0749551 8.57388 0.0749551 6.81258 0.174915C5.10838 0.255848 3.5946 0.646195 2.34264 1.8934C1.09068 3.1406 0.705097 4.65437 0.619404 6.36333C0.519444 8.12463 0.519444 13.4039 0.619404 15.1651C0.700337 16.8741 1.09068 18.3879 2.34264 19.6351C3.5946 20.8823 5.10362 21.2727 6.81258 21.3583C8.57388 21.4583 13.8531 21.4583 15.6143 21.3583C17.3234 21.2773 18.8371 20.8871 20.0843 19.6351C21.3315 18.3879 21.7219 16.8741 21.8075 15.1651C21.9075 13.4039 21.9075 8.1294 21.8075 6.36809ZM19.5321 17.0549C19.1609 17.988 18.4421 18.7068 17.5042 19.0828C16.0999 19.6399 12.7677 19.5113 11.2159 19.5113C9.66406 19.5113 6.32702 19.6351 4.92748 19.0828C3.99447 18.7116 3.27566 17.9928 2.89959 17.0549C2.34264 15.6507 2.47116 12.3184 2.47116 10.7667C2.47116 9.21481 2.3474 5.87777 2.89959 4.47824C3.2709 3.54522 3.98971 2.82641 4.92748 2.45034C6.33178 1.89339 9.66406 2.02191 11.2159 2.02191C12.7677 2.02191 16.1047 1.89815 17.5042 2.45034C18.4373 2.82165 19.1561 3.54046 19.5321 4.47824C20.0891 5.88253 19.9606 9.21481 19.9606 10.7667C19.9606 12.3184 20.0891 15.6555 19.5321 17.0549Z" fill="#035146"/>
</svg>
