<svg width="26" height="25" viewBox="0 0 26 25" fill="none" xmlns="http://www.w3.org/2000/svg">
<path d="M17.6041 8.60855L17.6037 8.60851C17.2462 8.57542 16.9049 8.44475 16.6154 8.23136C16.326 8.01807 16.0993 7.73023 15.9574 7.39885C15.9574 7.39882 15.9574 7.39879 15.9574 7.39876L13.1118 0.753781C12.9409 0.416684 12.4769 0.413315 12.3025 0.756225L9.45701 7.40093C9.457 7.40096 9.45698 7.40099 9.45697 7.40102C9.31512 7.73239 9.08835 8.02024 8.79897 8.23353C8.50947 8.44692 8.1682 8.57759 7.81069 8.61068L7.81031 8.61072L0.881845 9.24673C0.532866 9.30823 0.362103 9.77166 0.632042 10.0571L5.84944 14.5384L5.84968 14.5386C6.41411 15.024 6.66353 15.7818 6.51317 16.5088L6.51299 16.5096L4.99458 23.7867C4.93269 24.1945 5.33809 24.4501 5.64696 24.2923L11.6967 20.6673L17.6041 8.60855ZM17.6041 8.60855L24.5327 9.24458M17.6041 8.60855L24.5327 9.24458M24.5327 9.24458C24.8837 9.3061 25.0544 9.76763 24.7823 10.055L19.5668 14.5408C19.5668 14.5408 19.5668 14.5408 19.5668 14.5408C19.0035 15.0253 18.75 15.7832 18.9037 16.5127L20.4219 23.7889C20.4842 24.199 20.0787 24.4531 19.7699 24.2947L13.7198 20.6673L24.5327 9.24458ZM12.7083 20.3861C13.0645 20.3861 13.4136 20.4834 13.7194 20.6671L12.7083 20.3861ZM12.7083 20.3861C12.352 20.3861 12.003 20.4834 11.6972 20.667L12.7083 20.3861Z" stroke="#FDD835"/>
</svg>
