<svg width="85" height="333" viewBox="0 0 85 333" fill="none" xmlns="http://www.w3.org/2000/svg">
<path fill-rule="evenodd" clip-rule="evenodd" d="M274.527 143.076C283.754 180.102 317.486 214.822 302.004 249.712C286.039 285.693 241.326 297.307 202.695 304.959C166.965 312.037 129.646 309.116 98.6635 289.991C68.5077 271.376 51.6781 239.222 41.322 205.343C30.4795 169.873 15.9474 126.51 40.0699 98.311C63.6668 70.7263 109.428 96.2555 144.036 85.2705C182.518 73.0559 210.935 16.015 247.838 32.3624C283.937 48.3534 264.984 104.783 274.527 143.076Z" stroke="white" stroke-opacity="0.42"/>
<path fill-rule="evenodd" clip-rule="evenodd" d="M257.473 149.342C265.259 180.583 293.691 209.886 280.659 239.316C267.219 269.666 229.551 279.45 197.006 285.893C166.905 291.853 135.462 289.377 109.352 273.231C83.939 257.516 69.7492 230.383 61.0128 201.798C51.8661 171.87 39.6083 135.281 59.9229 111.499C79.7948 88.2342 118.359 109.787 147.513 100.531C179.931 90.2384 203.854 42.1245 234.951 55.9283C265.37 69.4311 249.42 117.033 257.473 149.342Z" stroke="white" stroke-opacity="0.42"/>
<path fill-rule="evenodd" clip-rule="evenodd" d="M238.106 156.155C244.239 180.762 266.64 203.841 256.368 227.024C245.775 250.931 216.091 258.641 190.445 263.719C166.725 268.416 141.948 266.469 121.375 253.754C101.351 241.378 90.1714 220.007 83.2898 197.492C76.0849 173.919 66.4292 145.1 82.4393 126.365C98.1007 108.038 128.487 125.012 151.462 117.718C177.008 109.608 195.864 71.7072 220.368 82.5773C244.337 93.2103 231.764 130.707 238.106 156.155Z" stroke="white" stroke-opacity="0.42"/>
<path fill-rule="evenodd" clip-rule="evenodd" d="M294.713 135.96C305.672 179.93 345.709 221.168 327.345 262.596C308.408 305.319 255.348 319.101 209.507 328.179C167.107 336.575 122.82 333.099 86.0489 310.38C50.2587 288.268 30.2797 250.082 17.9824 209.849C5.10751 167.727 -12.1475 116.23 16.4723 82.7493C44.4687 49.9981 98.78 80.3241 139.847 67.2873C185.511 52.7912 219.221 -14.9379 263.017 4.48292C305.859 23.4802 283.38 90.4858 294.713 135.96Z" stroke="white" stroke-opacity="0.42"/>
</svg>
