<svg width="226" height="293" viewBox="0 0 226 293" fill="none" xmlns="http://www.w3.org/2000/svg">
<path fill-rule="evenodd" clip-rule="evenodd" d="M69.8159 149.303C109.351 183.742 174.669 196.298 184.694 247.779C195.031 300.868 153.813 349.141 116.327 388.164C81.6551 424.258 37.3254 450.341 -12.6223 453.186C-61.2375 455.954 -105.499 432.986 -143.828 402.98C-183.956 371.566 -234.453 334.164 -229.479 283.418C-224.614 233.778 -152.98 226.514 -122.648 186.903C-88.9209 142.858 -101.81 56.2483 -47.3807 45.6148C5.86192 35.2133 28.9295 113.686 69.8159 149.303Z" stroke="white" stroke-opacity="0.42"/>
<path fill-rule="evenodd" clip-rule="evenodd" d="M55.5408 169.782C88.8991 198.84 143.984 209.466 152.47 252.87C161.221 297.63 126.497 338.297 94.9135 371.168C65.7015 401.572 28.3394 423.531 -13.7749 425.897C-54.7657 428.199 -92.1025 408.809 -124.441 383.49C-158.298 356.982 -200.901 325.42 -196.74 282.646C-192.669 240.803 -132.272 234.726 -106.722 201.354C-78.311 164.247 -89.2354 91.228 -43.347 82.2994C1.5407 73.5655 21.0422 139.732 55.5408 169.782Z" stroke="white" stroke-opacity="0.42"/>
<path fill-rule="evenodd" clip-rule="evenodd" d="M39.0911 192.699C65.3657 215.586 108.76 223.948 115.437 258.143C122.323 293.407 94.9596 325.454 70.072 351.359C47.0529 375.318 17.6146 392.626 -15.5639 394.498C-47.8573 396.319 -77.268 381.049 -102.74 361.107C-129.408 340.228 -162.965 315.369 -159.679 281.668C-156.464 248.7 -108.882 243.901 -88.7468 217.603C-66.3577 188.362 -74.9506 130.835 -38.7976 123.792C-3.43296 116.902 11.9183 169.029 39.0911 192.699Z" stroke="white" stroke-opacity="0.42"/>
<path fill-rule="evenodd" clip-rule="evenodd" d="M24.5505 212.955C44.565 230.39 77.6336 236.745 82.7073 262.808C87.9395 289.686 67.0706 314.127 48.0915 333.884C30.5372 352.159 8.0937 365.365 -17.1934 366.807C-41.806 368.21 -64.214 356.582 -83.6179 341.392C-103.933 325.489 -129.497 306.554 -126.978 280.863C-124.513 255.73 -88.2469 252.051 -72.8896 231.996C-55.8132 209.696 -62.3365 165.847 -34.7801 160.462C-7.82461 155.195 3.85182 194.924 24.5505 212.955Z" stroke="white" stroke-opacity="0.42"/>
<path fill-rule="evenodd" clip-rule="evenodd" d="M86.9511 125.4C133.901 166.298 211.451 181.231 223.375 242.344C235.671 305.367 186.759 362.65 142.274 408.955C101.129 451.783 48.5136 482.724 -10.7817 486.078C-68.4952 489.343 -121.052 462.06 -166.568 426.425C-214.222 389.117 -274.187 344.699 -268.305 284.465C-262.55 225.543 -177.512 216.952 -141.521 169.946C-101.5 117.679 -116.841 14.8659 -52.228 2.2681C10.9757 -10.055 38.396 83.1042 86.9511 125.4Z" stroke="white" stroke-opacity="0.42"/>
</svg>
