<svg width="781" height="769" viewBox="0 0 781 769" fill="none" xmlns="http://www.w3.org/2000/svg">
<path fill-rule="evenodd" clip-rule="evenodd" d="M520.061 222.98C586.745 272.799 691.643 284.907 713.636 365.214C736.315 448.03 676.803 529.354 622.1 595.59C571.504 656.853 504.428 703.417 425.694 713.861C349.061 724.026 276.258 692.929 212.012 649.985C144.748 605.025 60.3581 551.821 62.1973 470.893C63.9964 391.729 176.535 371.709 219.843 305.394C267.998 231.656 237.293 96.0766 322.195 72.7694C405.247 49.9706 451.098 171.457 520.061 222.98Z" stroke="white" stroke-opacity="0.42"/>
<path fill-rule="evenodd" clip-rule="evenodd" d="M499.898 257.098C556.163 299.132 644.632 309.403 663.228 377.106C682.405 446.925 632.27 515.435 586.18 571.23C543.55 622.836 487.014 662.043 420.624 670.797C356.005 679.317 294.591 653.06 240.386 616.824C183.634 578.886 112.435 533.988 113.936 465.776C115.403 399.051 210.295 382.247 246.775 326.377C287.339 264.254 261.36 149.957 332.944 130.365C402.967 111.2 441.709 213.628 499.898 257.098Z" stroke="white" stroke-opacity="0.42"/>
<path fill-rule="evenodd" clip-rule="evenodd" d="M476.582 295.334C520.899 328.442 590.591 336.519 605.229 389.859C620.324 444.866 580.816 498.854 544.497 542.823C510.905 583.491 466.36 614.392 414.057 621.301C363.15 628.026 314.774 607.349 272.078 578.808C227.377 548.927 171.296 513.564 172.49 459.82C173.658 407.247 248.415 393.99 277.163 349.964C309.13 301.01 288.685 210.96 345.081 195.51C400.247 180.397 430.749 261.094 476.582 295.334Z" stroke="white" stroke-opacity="0.42"/>
<path fill-rule="evenodd" clip-rule="evenodd" d="M455.972 329.13C489.73 354.351 542.837 360.479 553.969 401.136C565.448 443.064 535.318 484.239 507.622 517.774C482.005 548.792 448.045 572.369 408.184 577.658C369.387 582.806 332.53 567.064 300.005 545.324C265.953 522.563 223.231 495.629 224.164 454.656C225.077 414.577 282.052 404.438 303.979 370.863C328.36 333.529 312.818 264.888 355.802 253.086C397.849 241.541 421.059 303.047 455.972 329.13Z" stroke="white" stroke-opacity="0.42"/>
<path fill-rule="evenodd" clip-rule="evenodd" d="M544.345 183.101C623.536 242.263 748.082 256.68 774.226 352.01C801.187 450.318 730.568 546.821 665.651 625.416C605.607 698.111 525.992 753.352 432.52 765.714C341.542 777.746 255.094 740.804 178.8 689.805C98.9227 636.41 -1.29115 573.223 0.857589 477.167C2.95951 383.203 136.561 359.489 187.95 280.794C245.09 193.291 208.577 32.3513 309.367 4.72329C407.959 -22.3022 462.447 121.917 544.345 183.101Z" stroke="white" stroke-opacity="0.42"/>
</svg>
