<svg width="585" height="595" viewBox="0 0 585 595" fill="none" xmlns="http://www.w3.org/2000/svg">
<path fill-rule="evenodd" clip-rule="evenodd" d="M414.466 397.258C376.222 447.618 366.399 527.232 305.262 543.46C242.216 560.195 180.792 514.502 130.802 472.551C84.5644 433.75 49.5915 382.518 42.1274 322.645C34.8624 264.369 58.9195 209.25 91.9247 160.701C126.48 109.871 167.4 46.0813 228.866 47.9609C288.993 49.7996 303.53 135.41 353.649 168.704C409.378 205.725 512.554 183.208 529.753 247.844C546.578 311.07 454.016 345.177 414.466 397.258Z" stroke="white" stroke-opacity="0.42"/>
<path fill-rule="evenodd" clip-rule="evenodd" d="M388.667 381.737C356.401 424.229 348.071 491.374 296.529 505.097C243.376 519.248 191.631 480.754 149.521 445.409C110.572 412.718 81.1255 369.536 74.8716 319.05C68.7845 269.911 89.0966 223.414 116.947 182.453C146.105 139.567 180.637 85.7482 232.445 87.2948C283.125 88.8077 295.324 160.993 337.548 189.038C384.499 220.223 471.48 201.17 485.937 255.666C500.078 308.973 422.037 337.793 388.667 381.737Z" stroke="white" stroke-opacity="0.42"/>
<path fill-rule="evenodd" clip-rule="evenodd" d="M359.761 363.797C334.345 397.266 327.794 450.16 287.187 460.961C245.311 472.1 204.534 441.766 171.349 413.914C140.655 388.153 117.447 354.13 112.51 314.357C107.705 275.645 123.701 239.019 145.637 206.755C168.603 172.976 195.801 130.584 236.62 131.812C276.551 133.012 286.176 189.881 319.449 211.982C356.447 236.558 424.976 221.563 436.376 264.497C447.528 306.495 386.044 329.185 359.761 363.797Z" stroke="white" stroke-opacity="0.42"/>
<path fill-rule="evenodd" clip-rule="evenodd" d="M334.21 347.939C314.849 373.434 309.878 413.74 278.926 421.954C247.006 430.425 215.907 407.29 190.597 386.051C167.187 366.406 149.479 340.468 145.699 310.156C142.019 280.652 154.198 252.748 170.907 228.17C188.4 202.437 209.116 170.143 240.235 171.097C270.676 172.029 278.038 215.371 303.413 232.228C331.629 250.972 383.865 239.575 392.574 272.298C401.094 304.308 354.232 321.573 334.21 347.939Z" stroke="white" stroke-opacity="0.42"/>
<path fill-rule="evenodd" clip-rule="evenodd" d="M444.615 415.943C399.2 475.749 387.506 570.274 314.932 589.567C240.09 609.462 167.203 555.24 107.884 505.457C53.0192 459.411 11.5298 398.601 2.6961 327.521C-5.90193 258.338 22.6767 192.887 61.8736 135.234C102.911 74.8728 151.51 -0.878544 224.467 1.32645C295.834 3.4834 313.052 105.116 372.526 144.623C438.658 188.552 561.135 161.774 581.522 238.504C601.464 313.561 491.582 354.094 444.615 415.943Z" stroke="white" stroke-opacity="0.42"/>
</svg>
