<svg width="26" height="25" viewBox="0 0 26 25" fill="none" xmlns="http://www.w3.org/2000/svg">
<path d="M13.5661 0.544577L16.417 7.20202C16.5243 7.45257 16.6952 7.66906 16.9121 7.82888C17.1289 7.98871 17.3837 8.08601 17.6498 8.11064L24.595 8.7482C25.3808 8.8653 25.6943 9.85199 25.1245 10.4201L19.8928 14.9199C19.4692 15.2842 19.2765 15.8567 19.393 16.4097L20.9138 23.6982C21.0472 24.4984 20.2275 25.1099 19.5243 24.7304L13.4623 21.0959C13.2337 20.9585 12.9734 20.8861 12.7083 20.8861C12.4431 20.8861 12.1828 20.9585 11.9542 21.0959L5.89221 24.7282C5.19112 25.1056 4.3693 24.4962 4.50274 23.696L6.02353 16.4075C6.13791 15.8545 5.94728 15.282 5.52366 14.9177L0.289837 10.4223C-0.277813 9.85632 0.0356655 8.86747 0.819362 8.75036L7.76461 8.11281C8.03071 8.08818 8.28547 7.99088 8.50231 7.83105C8.71914 7.67122 8.8901 7.45474 8.99734 7.20419L11.8483 0.546746C12.202 -0.181887 13.2145 -0.181887 13.5661 0.544577Z" fill="#FDD835"/>
</svg>
