<svg class="text-black" width="151" height="25" viewBox="0 0 151 25" fill="none" xmlns="http://www.w3.org/2000/svg">
<path d="M13.5661 0.544577L16.417 7.20202C16.5243 7.45257 16.6952 7.66906 16.9121 7.82888C17.1289 7.98871 17.3837 8.08601 17.6498 8.11064L24.595 8.7482C25.3808 8.8653 25.6943 9.85199 25.1245 10.4201L19.8928 14.9199C19.4692 15.2842 19.2765 15.8567 19.393 16.4097L20.9138 23.6982C21.0472 24.4984 20.2275 25.1099 19.5243 24.7304L13.4623 21.0959C13.2337 20.9585 12.9734 20.8861 12.7083 20.8861C12.4431 20.8861 12.1828 20.9585 11.9542 21.0959L5.89221 24.7282C5.19112 25.1056 4.3693 24.4962 4.50274 23.696L6.02353 16.4075C6.13791 15.8545 5.94728 15.282 5.52366 14.9177L0.289837 10.4223C-0.277813 9.85632 0.0356655 8.86747 0.819362 8.75036L7.76461 8.11281C8.03071 8.08818 8.28547 7.99088 8.50231 7.83105C8.71914 7.67122 8.8901 7.45474 8.99734 7.20419L11.8483 0.546746C12.202 -0.181887 13.2145 -0.181887 13.5661 0.544577Z" fill="#FDD835"/>
<path d="M13.3586 7.601L12.8757 2.69575C12.8566 2.42251 12.8015 1.9541 13.2294 1.9541C13.5683 1.9541 13.7525 2.67623 13.7525 2.67623L15.2013 6.61431C15.7478 8.11278 15.5233 8.62673 14.9959 8.93032C14.3901 9.27729 13.4963 9.00622 13.3586 7.601Z" fill="#FFFF8D"/>
<path d="M19.3337 14.4842L23.4894 11.1641C23.6949 10.9885 24.0656 10.7087 23.769 10.3899C23.5339 10.1384 22.8985 10.5005 22.8985 10.5005L19.2617 11.9556C18.1773 12.3395 17.4571 12.9076 17.3936 13.6232C17.311 14.5774 18.1476 15.3125 19.3337 14.4842Z" fill="#F4B400"/>
<path d="M44.9621 0.544699L47.813 7.20214C47.9203 7.45269 48.0912 7.66918 48.3081 7.829C48.5249 7.98883 48.7797 8.08613 49.0458 8.11076L55.991 8.74832C56.7768 8.86542 57.0903 9.85211 56.5205 10.4203L51.2888 14.92C50.8652 15.2843 50.6725 15.8568 50.789 16.4098L52.3098 23.6983C52.4432 24.4985 51.6235 25.11 50.9203 24.7305L44.8583 21.096C44.6297 20.9586 44.3694 20.8862 44.1042 20.8862C43.8391 20.8862 43.5788 20.9586 43.3502 21.096L37.2882 24.7284C36.5871 25.1057 35.7653 24.4963 35.8987 23.6961L37.4195 16.4076C37.5339 15.8547 37.3433 15.2822 36.9197 14.9178L31.6858 10.4224C31.1182 9.85645 31.4317 8.86759 32.2154 8.75049L39.1606 8.11293C39.4267 8.0883 39.6815 7.991 39.8983 7.83117C40.1151 7.67135 40.2861 7.45486 40.3933 7.20431L43.2443 0.546868C43.598 -0.181765 44.6105 -0.181765 44.9621 0.544699Z" fill="#FDD835"/>
<path d="M44.7546 7.601L44.2716 2.69575C44.2526 2.42251 44.1975 1.9541 44.6254 1.9541C44.9643 1.9541 45.1485 2.67623 45.1485 2.67623L46.5973 6.61431C47.1438 8.11278 46.9193 8.62673 46.3919 8.93032C45.7861 9.27729 44.8923 9.00622 44.7546 7.601Z" fill="#FFFF8D"/>
<path d="M50.7297 14.4842L54.8854 11.1641C55.0909 10.9885 55.4616 10.7087 55.165 10.3899C54.9299 10.1384 54.2945 10.5005 54.2945 10.5005L50.6577 11.9556C49.5733 12.3395 48.8531 12.9076 48.7896 13.6232C48.7069 14.5774 49.5436 15.3125 50.7297 14.4842Z" fill="#F4B400"/>
<path d="M76.3581 0.544699L79.209 7.20214C79.3163 7.45269 79.4872 7.66918 79.7041 7.829C79.9209 7.98883 80.1757 8.08613 80.4418 8.11076L87.387 8.74832C88.1728 8.86542 88.4863 9.85211 87.9165 10.4203L82.6848 14.92C82.2612 15.2843 82.0685 15.8568 82.185 16.4098L83.7058 23.6983C83.8392 24.4985 83.0195 25.11 82.3163 24.7305L76.2543 21.096C76.0257 20.9586 75.7653 20.8862 75.5002 20.8862C75.2351 20.8862 74.9748 20.9586 74.7462 21.096L68.6842 24.7284C67.9831 25.1057 67.1613 24.4963 67.2947 23.6961L68.8155 16.4076C68.9299 15.8547 68.7393 15.2822 68.3157 14.9178L63.0818 10.4224C62.5142 9.85645 62.8277 8.86759 63.6114 8.75049L70.5566 8.11293C70.8227 8.0883 71.0775 7.991 71.2943 7.83117C71.5111 7.67135 71.6821 7.45486 71.7893 7.20431L74.6403 0.546868C74.994 -0.181765 76.0065 -0.181765 76.3581 0.544699Z" fill="#FDD835"/>
<path d="M76.1506 7.601L75.6676 2.69575C75.6486 2.42251 75.5935 1.9541 76.0214 1.9541C76.3603 1.9541 76.5445 2.67623 76.5445 2.67623L77.9933 6.61431C78.5398 8.11278 78.3153 8.62673 77.7879 8.93032C77.1821 9.27729 76.2882 9.00622 76.1506 7.601Z" fill="#FFFF8D"/>
<path d="M82.1257 14.4842L86.2814 11.1641C86.4869 10.9885 86.8576 10.7087 86.561 10.3899C86.3259 10.1384 85.6905 10.5005 85.6905 10.5005L82.0537 11.9556C80.9692 12.3395 80.2491 12.9076 80.1856 13.6232C80.1029 14.5774 80.9396 15.3125 82.1257 14.4842Z" fill="#F4B400"/>
<path d="M107.754 0.544699L110.605 7.20214C110.712 7.45269 110.883 7.66918 111.1 7.829C111.317 7.98883 111.572 8.08613 111.838 8.11076L118.783 8.74832C119.569 8.86542 119.882 9.85211 119.313 10.4203L114.081 14.92C113.657 15.2843 113.464 15.8568 113.581 16.4098L115.102 23.6983C115.235 24.4985 114.415 25.11 113.712 24.7305L107.65 21.096C107.422 20.9586 107.161 20.8862 106.896 20.8862C106.631 20.8862 106.371 20.9586 106.142 21.096L100.08 24.7284C99.3791 25.1057 98.5573 24.4963 98.6907 23.6961L100.212 16.4076C100.326 15.8547 100.135 15.2822 99.7116 14.9178L94.4778 10.4224C93.9102 9.85645 94.2237 8.86759 95.0074 8.75049L101.953 8.11293C102.219 8.0883 102.473 7.991 102.69 7.83117C102.907 7.67135 103.078 7.45486 103.185 7.20431L106.036 0.546868C106.39 -0.181765 107.402 -0.181765 107.754 0.544699Z" fill="#FDD835"/>
<path d="M107.547 7.601L107.064 2.69575C107.045 2.42251 106.99 1.9541 107.417 1.9541C107.756 1.9541 107.941 2.67623 107.941 2.67623L109.389 6.61431C109.936 8.11278 109.711 8.62673 109.184 8.93032C108.578 9.27729 107.684 9.00622 107.547 7.601Z" fill="#FFFF8D"/>
<path d="M113.522 14.4842L117.677 11.1641C117.883 10.9885 118.254 10.7087 117.957 10.3899C117.722 10.1384 117.086 10.5005 117.086 10.5005L113.45 11.9556C112.365 12.3395 111.645 12.9076 111.582 13.6232C111.499 14.5774 112.336 15.3125 113.522 14.4842Z" fill="#F4B400"/>
<path d="M139.15 0.544699L142.001 7.20214C142.109 7.45269 142.279 7.66918 142.496 7.829C142.713 7.98883 142.968 8.08613 143.234 8.11076L150.179 8.74832C150.965 8.86542 151.279 9.85211 150.709 10.4203L145.477 14.92C145.053 15.2843 144.861 15.8568 144.977 16.4098L146.498 23.6983C146.631 24.4985 145.812 25.11 145.109 24.7305L139.047 21.096C138.818 20.9586 138.558 20.8862 138.292 20.8862C138.027 20.8862 137.767 20.9586 137.538 21.096L131.476 24.7284C130.775 25.1057 129.954 24.4963 130.087 23.6961L131.608 16.4076C131.722 15.8547 131.532 15.2822 131.108 14.9178L125.874 10.4224C125.306 9.85645 125.62 8.86759 126.404 8.75049L133.349 8.11293C133.615 8.0883 133.87 7.991 134.087 7.83117C134.303 7.67135 134.474 7.45486 134.582 7.20431L137.433 0.546868C137.786 -0.181765 138.799 -0.181765 139.15 0.544699Z" fill="#716F74"/>
<path d="M138.943 7.601L138.46 2.69575C138.441 2.42251 138.386 1.9541 138.814 1.9541C139.153 1.9541 139.337 2.67623 139.337 2.67623L140.786 6.61431C141.332 8.11278 141.108 8.62673 140.58 8.93032C139.974 9.27729 139.08 9.00622 138.943 7.601Z" fill="#716F74"/>
<path d="M144.918 14.4842L149.074 11.1641C149.279 10.9885 149.65 10.7087 149.353 10.3899C149.118 10.1384 148.483 10.5005 148.483 10.5005L144.846 11.9556C143.761 12.3395 143.041 12.9076 142.978 13.6232C142.895 14.5774 143.732 15.3125 144.918 14.4842Z" fill="#716F74"/>
</svg>
