<svg width="1224" height="310" viewBox="0 0 1224 310" fill="none" xmlns="http://www.w3.org/2000/svg">
<rect width="1224" height="310" rx="36" fill="#FFC923"/>
<path fill-rule="evenodd" clip-rule="evenodd" d="M353.365 314.392C330.377 373.301 342.736 452.562 288.382 484.914C232.33 518.278 160.74 491.156 101.171 464.502C46.0749 439.849 -1.59331 400.155 -25.1711 344.616C-48.12 290.559 -40.0802 230.958 -21.6348 175.226C-2.32316 116.875 19.5601 44.3169 79.1903 29.2891C137.521 14.5887 174.951 92.9431 232.273 111.237C296.01 131.578 389.074 81.6616 423.319 139.115C456.817 195.315 377.137 253.47 353.365 314.392Z" stroke="white" stroke-opacity="0.42"/>
<path fill-rule="evenodd" clip-rule="evenodd" d="M324.302 306.532C304.908 356.236 315.287 423.095 269.475 450.41C222.231 478.579 161.922 455.73 111.741 433.271C65.327 412.498 25.1791 379.032 5.33626 332.191C-13.9772 286.598 -7.17739 236.316 8.38849 189.292C24.6854 140.06 43.1553 78.8413 93.4058 66.1384C142.562 53.7123 174.066 119.795 222.357 135.203C276.054 152.336 354.49 110.187 383.32 158.639C411.522 206.035 344.359 255.128 324.302 306.532Z" stroke="white" stroke-opacity="0.42"/>
<path fill-rule="evenodd" clip-rule="evenodd" d="M291.587 297.195C276.311 336.345 284.498 389.011 248.402 410.521C211.178 432.704 163.652 414.699 124.107 397.001C87.5315 380.633 55.8914 354.267 40.2499 317.367C25.0256 281.452 30.3776 241.845 42.6375 204.807C55.4732 166.029 70.0196 117.809 109.615 107.809C148.347 98.0271 173.181 150.085 211.235 162.227C253.549 175.729 315.35 142.538 338.074 180.707C360.302 218.044 307.385 256.707 291.587 297.195Z" stroke="white" stroke-opacity="0.42"/>
<path fill-rule="evenodd" clip-rule="evenodd" d="M387.479 324.105C360.181 394.063 374.825 488.177 310.31 526.609C243.78 566.243 158.829 534.058 88.1431 502.426C22.7643 473.169 -33.7943 426.049 -61.759 360.107C-88.9777 295.924 -79.4188 225.149 -57.5122 158.964C-34.5767 89.6709 -8.58517 3.50531 62.1856 -14.3569C131.415 -31.83 175.812 61.2002 243.832 82.9058C319.467 107.041 429.925 47.7407 470.549 115.953C510.287 182.678 415.709 251.757 387.479 324.105Z" stroke="white" stroke-opacity="0.42"/>
<path fill-rule="evenodd" clip-rule="evenodd" d="M996.59 336.707C940.186 308.12 860.1 312.741 833.167 255.508C805.392 196.486 839.322 127.861 871.623 71.1553C901.498 18.7067 945.624 -24.8911 1003.19 -42.9766C1059.21 -60.5796 1117.75 -46.8027 1171.44 -23.0439C1227.64 1.83073 1297.74 30.6416 1306.92 91.4473C1315.9 150.928 1234.28 180.59 1210.52 235.869C1184.1 297.336 1224.77 394.798 1164.26 423.315C1105.08 451.211 1054.92 366.271 996.59 336.707Z" stroke="white" stroke-opacity="0.42"/>
<path fill-rule="evenodd" clip-rule="evenodd" d="M1007.23 308.542C959.638 284.423 892.088 288.276 869.34 240.032C845.882 190.282 874.467 132.47 901.683 84.7009C926.855 40.5185 964.053 3.80205 1012.6 -11.4087C1059.85 -26.2136 1109.23 -14.5737 1154.53 5.47524C1201.95 26.4658 1261.09 50.7805 1268.86 102.025C1276.47 152.154 1207.64 177.107 1187.63 223.678C1165.38 275.462 1199.73 357.613 1148.71 381.613C1098.8 405.089 1056.45 333.486 1007.23 308.542Z" stroke="white" stroke-opacity="0.42"/>
<path fill-rule="evenodd" clip-rule="evenodd" d="M1019.69 276.886C982.207 257.888 928.996 260.934 911.083 222.923C892.612 183.725 915.138 138.167 936.583 100.524C956.419 65.7061 985.726 36.7695 1023.97 24.7769C1061.19 13.1043 1100.09 22.2687 1135.77 38.0598C1173.12 54.5924 1219.7 73.7427 1225.82 114.12C1231.8 153.618 1177.58 173.291 1161.81 209.99C1144.27 250.796 1171.32 315.523 1131.13 334.441C1091.81 352.947 1058.46 296.533 1019.69 276.886Z" stroke="white" stroke-opacity="0.42"/>
<path fill-rule="evenodd" clip-rule="evenodd" d="M1030.71 248.904C1002.15 234.432 961.61 236.773 947.975 207.797C933.915 177.916 951.095 143.171 967.448 114.46C982.574 87.9052 1004.91 65.8311 1034.06 56.6734C1062.42 47.7599 1092.06 54.7339 1119.23 66.7617C1147.69 79.3543 1183.17 93.9396 1187.82 124.725C1192.36 154.839 1151.05 169.859 1139.02 197.846C1125.64 228.967 1146.22 278.311 1115.59 292.75C1085.63 306.874 1060.24 263.871 1030.71 248.904Z" stroke="white" stroke-opacity="0.42"/>
</svg>
