<svg width="428" height="418" viewBox="0 0 428 418" fill="none" xmlns="http://www.w3.org/2000/svg">
<rect x="-193" y="90" width="800" height="295" rx="36" fill="#FFC923"/>
<path fill-rule="evenodd" clip-rule="evenodd" d="M35.7258 265.937C20.6964 304.452 28.7769 356.275 -6.76088 377.427C-43.409 399.241 -90.216 381.508 -129.163 364.081C-165.187 347.963 -196.353 322.01 -211.769 285.698C-226.773 250.354 -221.517 211.386 -209.457 174.946C-196.83 136.796 -182.523 89.3555 -143.535 79.53C-105.397 69.9185 -80.9245 121.148 -43.4467 133.109C-1.77356 146.409 59.0732 113.772 81.4635 151.336C103.366 188.081 51.269 226.104 35.7258 265.937Z" stroke="white" stroke-opacity="0.42"/>
<path fill-rule="evenodd" clip-rule="evenodd" d="M16.724 260.797C4.04377 293.295 10.8302 337.009 -19.1229 354.868C-50.0118 373.285 -89.4436 358.346 -122.253 343.662C-152.599 330.08 -178.849 308.2 -191.822 277.573C-204.45 247.764 -200.004 214.889 -189.827 184.144C-179.172 151.955 -167.096 111.928 -134.241 103.623C-102.102 95.4985 -81.5031 138.705 -49.9296 148.779C-14.8216 159.981 36.4616 132.423 55.3115 164.102C73.7503 195.09 29.8377 227.188 16.724 260.797Z" stroke="white" stroke-opacity="0.42"/>
<path fill-rule="evenodd" clip-rule="evenodd" d="M-4.66601 254.693C-14.6539 280.29 -9.30091 314.724 -32.9013 328.788C-57.239 343.291 -88.3125 331.519 -114.168 319.948C-138.082 309.246 -158.769 292.008 -168.995 267.882C-178.949 244.399 -175.45 218.504 -167.434 194.287C-159.042 168.933 -149.531 137.406 -123.643 130.868C-98.319 124.472 -82.0824 158.509 -57.2017 166.448C-29.5358 175.276 10.8712 153.574 25.7285 178.53C40.2618 202.942 5.66325 228.221 -4.66601 254.693Z" stroke="white" stroke-opacity="0.42"/>
<path fill-rule="evenodd" clip-rule="evenodd" d="M-23.5726 249.297C-31.1812 268.795 -27.0892 295.031 -45.0815 305.739C-63.6359 316.781 -87.3345 307.803 -107.054 298.98C-125.292 290.819 -141.072 277.68 -148.878 259.296C-156.475 241.403 -153.814 221.675 -147.709 203.228C-141.317 183.914 -134.074 159.897 -114.335 154.924C-95.0259 150.059 -82.6347 175.995 -63.6596 182.05C-42.5604 188.784 -11.7545 172.263 -0.417719 191.28C10.6718 209.883 -15.7038 229.131 -23.5726 249.297Z" stroke="white" stroke-opacity="0.42"/>
<path fill-rule="evenodd" clip-rule="evenodd" d="M58.0303 272.287C40.1827 318.027 49.7569 379.56 7.57605 404.689C-35.9227 430.602 -91.4659 409.559 -137.682 388.877C-180.428 369.748 -217.407 338.94 -235.691 295.825C-253.487 253.861 -247.237 207.587 -232.914 164.314C-217.919 119.009 -200.925 62.672 -154.653 50.9933C-109.39 39.569 -80.3622 100.394 -35.8888 114.586C13.5631 130.366 85.7829 91.5941 112.344 136.193C138.325 179.819 76.488 224.984 58.0303 272.287Z" stroke="white" stroke-opacity="0.42"/>
<path fill-rule="evenodd" clip-rule="evenodd" d="M456.278 280.526C419.4 261.836 367.039 264.857 349.429 227.437C331.269 188.847 353.454 143.979 374.572 106.903C394.105 72.6112 422.956 44.1061 460.591 32.2814C497.222 20.7722 535.498 29.7798 570.597 45.3138C607.345 61.5774 653.176 80.4145 659.177 120.171C665.048 159.06 611.688 178.454 596.152 214.597C578.877 254.785 605.465 318.508 565.908 337.153C527.213 355.391 494.417 299.856 456.278 280.526Z" stroke="white" stroke-opacity="0.42"/>
<path fill-rule="evenodd" clip-rule="evenodd" d="M463.235 262.112C432.118 246.342 387.953 248.861 373.08 217.319C357.742 184.791 376.432 146.992 394.226 115.76C410.684 86.8721 435.005 62.8661 466.744 52.921C497.637 43.2412 529.927 50.8516 559.541 63.9601C590.546 77.6841 629.214 93.5816 634.297 127.087C639.269 159.862 594.27 176.177 581.184 206.626C566.634 240.483 589.093 294.195 555.736 309.887C523.107 325.236 495.415 278.42 463.235 262.112Z" stroke="white" stroke-opacity="0.42"/>
<path fill-rule="evenodd" clip-rule="evenodd" d="M471.383 241.414C446.874 228.993 412.084 230.984 400.372 206.132C388.295 180.504 403.023 150.717 417.045 126.105C430.014 103.34 449.175 84.421 474.179 76.58C498.515 68.9482 523.95 74.9401 547.275 85.2646C571.697 96.074 602.154 108.595 606.153 134.995C610.065 160.819 574.616 173.682 564.303 197.676C552.836 224.356 570.52 266.676 544.242 279.045C518.537 291.145 496.73 254.26 471.383 241.414Z" stroke="white" stroke-opacity="0.42"/>
<path fill-rule="evenodd" clip-rule="evenodd" d="M478.586 223.119C459.916 213.657 433.407 215.188 424.493 196.243C415.3 176.705 426.532 153.988 437.225 135.217C447.114 117.855 461.721 103.422 480.774 97.4346C499.319 91.6068 518.697 96.1665 536.466 104.031C555.069 112.264 578.271 121.8 581.309 141.928C584.28 161.618 557.266 171.438 549.4 189.737C540.653 210.084 554.112 242.346 534.085 251.787C514.496 261.021 497.893 232.905 478.586 223.119Z" stroke="white" stroke-opacity="0.42"/>
<path fill-rule="evenodd" clip-rule="evenodd" d="M447.796 302.111C404.001 279.915 341.829 283.482 320.907 239.065C299.33 193.26 325.656 140.017 350.718 96.0226C373.899 55.3312 408.146 21.5111 452.829 7.49073C496.32 -6.15559 541.771 4.5485 583.452 22.997C627.091 42.312 681.516 64.6846 688.657 111.87C695.642 158.027 632.29 181.025 613.856 223.914C593.358 271.604 624.95 347.241 577.988 369.355C532.05 390.987 493.088 325.065 447.796 302.111Z" stroke="white" stroke-opacity="0.42"/>
</svg>
