<svg width="428" height="475" viewBox="0 0 428 475" fill="none" xmlns="http://www.w3.org/2000/svg">
<path d="M404 20C404 8.9543 395.046 0 384 0H44C32.9543 0 24 8.9543 24 20V165.464V215C24 221.075 28.9249 226 35 226H73.1837H368C387.882 226 404 209.882 404 190V20Z" fill="#035146"/>
<g filter="url(#filter0_d_1_36)">
<rect x="33.6733" y="113" width="360.839" height="323" rx="36" fill="white"/>
<rect x="34.1733" y="113.5" width="359.839" height="322" rx="35.5" stroke="#FFC923"/>
</g>
<g filter="url(#filter1_i_1_36)">
<path d="M297.01 394.141C297.088 394.688 297.595 395.068 298.141 394.99L307.051 393.717C307.598 393.639 307.978 393.133 307.899 392.586C307.821 392.039 307.315 391.659 306.768 391.737L298.849 392.869L297.717 384.949C297.639 384.402 297.133 384.022 296.586 384.101C296.039 384.179 295.659 384.685 295.737 385.232L297.01 394.141ZM315.863 391.372L315.338 390.521L315.863 391.372ZM315.338 390.521L314.233 391.202L315.284 392.904L316.388 392.223L315.338 390.521ZM316.729 400H317.124V398H316.729V400ZM299.003 390.996L297.2 393.4L298.8 394.6L300.603 392.196L299.003 390.996ZM321.429 392.869C316.911 384.21 304.871 383.171 299.003 390.996L300.603 392.196C305.58 385.56 315.812 386.427 319.656 393.794L321.429 392.869ZM317.124 400C320.785 400 323.116 396.101 321.429 392.869L319.656 393.794C320.655 395.708 319.268 398 317.124 398V400ZM314.233 391.202C310.157 393.717 311.94 400 316.729 400V398C313.955 398 312.923 394.361 315.284 392.904L314.233 391.202ZM336.726 393.312C331.157 387.434 322.229 386.269 315.338 390.521L316.388 392.223C322.473 388.468 330.357 389.497 335.274 394.688L336.726 393.312Z" fill="#FFC923"/>
</g>
<defs>
<filter id="filter0_d_1_36" x="-0.726662" y="82.6" width="429.639" height="391.8" filterUnits="userSpaceOnUse" color-interpolation-filters="sRGB">
<feFlood flood-opacity="0" result="BackgroundImageFix"/>
<feColorMatrix in="SourceAlpha" type="matrix" values="0 0 0 0 0 0 0 0 0 0 0 0 0 0 0 0 0 0 127 0" result="hardAlpha"/>
<feOffset dy="4"/>
<feGaussianBlur stdDeviation="17.2"/>
<feComposite in2="hardAlpha" operator="out"/>
<feColorMatrix type="matrix" values="0 0 0 0 0 0 0 0 0 0 0 0 0 0 0 0 0 0 0.25 0"/>
<feBlend mode="normal" in2="BackgroundImageFix" result="effect1_dropShadow_1_36"/>
<feBlend mode="normal" in="SourceGraphic" in2="effect1_dropShadow_1_36" result="shape"/>
</filter>
<filter id="filter1_i_1_36" x="295.727" y="384.09" width="40.999" height="19.9097" filterUnits="userSpaceOnUse" color-interpolation-filters="sRGB">
<feFlood flood-opacity="0" result="BackgroundImageFix"/>
<feBlend mode="normal" in="SourceGraphic" in2="BackgroundImageFix" result="shape"/>
<feColorMatrix in="SourceAlpha" type="matrix" values="0 0 0 0 0 0 0 0 0 0 0 0 0 0 0 0 0 0 127 0" result="hardAlpha"/>
<feOffset dy="4"/>
<feGaussianBlur stdDeviation="2"/>
<feComposite in2="hardAlpha" operator="arithmetic" k2="-1" k3="1"/>
<feColorMatrix type="matrix" values="0 0 0 0 1 0 0 0 0 0.788235 0 0 0 0 0.137255 0 0 0 1 0"/>
<feBlend mode="normal" in2="shape" result="effect1_innerShadow_1_36"/>
</filter>
</defs>
</svg>
