<svg width="25" height="24" viewBox="0 0 25 24" fill="none" xmlns="http://www.w3.org/2000/svg">
<path d="M18.9141 17.75H7.87853C6.85269 17.75 5.8683 17.33 5.17405 16.6C4.47979 15.87 4.12749 14.89 4.21039 13.9L5.07044 3.94C5.10152 3.63 4.98753 3.33001 4.76993 3.10001C4.55233 2.87001 4.25183 2.75 3.93061 2.75H2.13799C1.71315 2.75 1.36084 2.41 1.36084 2C1.36084 1.59 1.71315 1.25 2.13799 1.25H3.94098C4.69741 1.25 5.41237 1.56 5.92011 2.09C6.19989 2.39 6.40713 2.74 6.52111 3.13H19.4632C20.5098 3.13 21.4735 3.53 22.1781 4.25C22.8723 4.98 23.2247 5.93 23.1418 6.94L22.5822 14.44C22.4682 16.27 20.8103 17.75 18.9141 17.75ZM6.57292 4.62L5.76469 14.02C5.71288 14.6 5.90976 15.15 6.31387 15.58C6.71799 16.01 7.27753 16.24 7.87853 16.24H18.9141C19.9917 16.24 20.9657 15.36 21.0486 14.32L21.6082 6.82001C21.6496 6.23001 21.4528 5.67001 21.0486 5.26001C20.6445 4.84001 20.085 4.60999 19.4736 4.60999H6.57292V4.62Z" fill="gray"/>
<path d="M16.9038 22.75C15.764 22.75 14.8314 21.85 14.8314 20.75C14.8314 19.65 15.764 18.75 16.9038 18.75C18.0436 18.75 18.9762 19.65 18.9762 20.75C18.9762 21.85 18.0436 22.75 16.9038 22.75ZM16.9038 20.25C16.6137 20.25 16.3857 20.47 16.3857 20.75C16.3857 21.03 16.6137 21.25 16.9038 21.25C17.194 21.25 17.4219 21.03 17.4219 20.75C17.4219 20.47 17.194 20.25 16.9038 20.25Z" fill="gray"/>
<path d="M8.61415 22.75C7.47433 22.75 6.54175 21.85 6.54175 20.75C6.54175 19.65 7.47433 18.75 8.61415 18.75C9.75397 18.75 10.6865 19.65 10.6865 20.75C10.6865 21.85 9.75397 22.75 8.61415 22.75ZM8.61415 20.25C8.32401 20.25 8.09605 20.47 8.09605 20.75C8.09605 21.03 8.32401 21.25 8.61415 21.25C8.90428 21.25 9.13225 21.03 9.13225 20.75C9.13225 20.47 8.90428 20.25 8.61415 20.25Z" fill="gray"/>
<path d="M21.8258 8.75H9.39141C8.96657 8.75 8.61426 8.41 8.61426 8C8.61426 7.59 8.96657 7.25 9.39141 7.25H21.8258C22.2506 7.25 22.603 7.59 22.603 8C22.603 8.41 22.2506 8.75 21.8258 8.75Z" fill="gray"/>
</svg>
