<svg width="695" height="693" viewBox="0 0 695 693" fill="none" xmlns="http://www.w3.org/2000/svg">
<path fill-rule="evenodd" clip-rule="evenodd" d="M425.791 175.961C480.455 207.75 560.674 207.75 584.265 266.44C608.594 326.963 570.767 393.52 535.253 448.271C502.406 498.911 455.842 539.894 397.334 554.634C340.386 568.98 282.735 551.854 230.51 525.042C175.832 496.971 107.511 464.17 101.85 402.936C96.3123 343.037 179.498 318.126 206.405 264.307C236.323 204.465 201.341 104.822 263.384 79.8372C324.075 55.3974 369.259 143.086 425.791 175.961Z" stroke="white" stroke-opacity="0.42"/>
<path fill-rule="evenodd" clip-rule="evenodd" d="M413.547 203.466C459.67 230.286 527.329 230.332 547.26 279.805C567.814 330.825 535.946 386.894 506.023 433.016C478.347 475.675 439.096 510.187 389.756 522.576C341.733 534.635 293.098 520.169 249.035 497.544C202.901 473.857 145.259 446.175 140.45 394.568C135.745 344.084 205.893 323.137 228.557 277.797C253.758 227.381 224.197 143.388 276.513 122.366C327.688 101.804 365.847 175.729 413.547 203.466Z" stroke="white" stroke-opacity="0.42"/>
<path fill-rule="evenodd" clip-rule="evenodd" d="M399.281 234.352C435.61 255.478 488.908 255.502 504.601 294.481C520.784 334.679 495.671 378.863 472.092 415.209C450.284 448.826 419.358 476.026 380.489 485.796C342.657 495.305 304.348 483.915 269.641 466.094C233.303 447.438 187.9 425.636 184.12 384.973C180.422 345.195 235.684 328.679 253.545 292.95C273.405 253.221 250.132 187.044 291.347 170.472C331.663 154.262 361.711 212.504 399.281 234.352Z" stroke="white" stroke-opacity="0.42"/>
<path fill-rule="evenodd" clip-rule="evenodd" d="M386.671 261.652C414.345 277.745 454.956 277.744 466.899 307.457C479.214 338.099 460.062 371.797 442.082 399.517C425.451 425.157 401.877 445.907 372.256 453.371C343.425 460.636 314.239 451.966 287.8 438.393C260.119 424.182 225.532 407.576 222.667 376.575C219.865 346.248 261.979 333.634 275.602 306.386C290.75 276.087 273.042 225.64 304.453 212.989C335.179 200.614 358.052 245.009 386.671 261.652Z" stroke="white" stroke-opacity="0.42"/>
<path fill-rule="evenodd" clip-rule="evenodd" d="M440.644 143.751C505.561 181.501 600.807 181.532 628.841 251.197C657.751 323.039 612.862 402.018 570.717 466.986C531.737 527.077 476.465 575.7 407.002 593.171C339.392 610.176 270.934 589.827 208.915 557.985C143.983 524.648 62.8507 485.691 56.1054 413.013C49.507 341.919 148.267 312.385 180.193 248.521C215.693 177.507 174.119 59.2315 247.776 29.6023C319.826 0.619132 373.509 104.711 440.644 143.751Z" stroke="white" stroke-opacity="0.42"/>
</svg>
