<svg width="580" height="573" viewBox="0 0 580 573" fill="none" xmlns="http://www.w3.org/2000/svg">
<path fill-rule="evenodd" clip-rule="evenodd" d="M361.453 145.721C417.413 175.168 497.56 171.773 523.615 229.411C550.483 288.85 515.507 356.948 482.343 413.153C451.669 465.139 406.881 508.056 349.049 525.259C292.76 542.003 234.436 527.332 181.122 502.755C125.305 477.023 55.6572 447.144 47.4092 386.205C39.341 326.593 121.398 298.183 146.002 243.274C173.361 182.219 134.192 84.1461 195.123 56.5578C254.724 29.571 303.58 115.268 361.453 145.721Z" stroke="white" stroke-opacity="0.42"/>
<path fill-rule="evenodd" clip-rule="evenodd" d="M350.383 173.72C397.6 198.564 465.201 195.745 487.208 244.331C509.903 294.435 480.437 351.803 452.494 399.149C426.648 442.942 388.893 479.085 340.122 493.551C292.651 507.631 243.448 495.237 198.466 474.498C151.372 452.784 92.6093 427.568 85.6201 376.21C78.7831 325.971 147.982 302.073 168.706 255.814C191.75 204.377 158.661 121.71 210.04 98.4932C260.298 75.7829 301.552 148.026 350.383 173.72Z" stroke="white" stroke-opacity="0.42"/>
<path fill-rule="evenodd" clip-rule="evenodd" d="M337.438 205.182C374.629 224.751 427.88 222.52 445.209 260.8C463.078 300.276 439.858 345.483 417.839 382.795C397.473 417.305 367.727 445.79 329.306 457.196C291.91 468.298 253.153 458.539 217.723 442.204C180.628 425.102 134.343 405.241 128.845 364.775C123.467 325.19 177.98 306.349 194.313 269.896C212.473 229.362 186.42 164.23 226.896 145.928C266.49 128.026 298.976 184.944 337.438 205.182Z" stroke="white" stroke-opacity="0.42"/>
<path fill-rule="evenodd" clip-rule="evenodd" d="M325.995 232.991C354.325 247.899 394.9 246.178 408.089 275.359C421.691 305.452 403.982 339.931 387.191 368.388C371.661 394.708 348.986 416.438 319.707 425.149C291.21 433.627 261.683 426.201 234.693 413.758C206.436 400.732 171.176 385.606 167.002 354.753C162.919 324.572 204.461 310.187 216.919 282.386C230.771 251.474 210.943 201.821 241.79 187.852C271.965 174.188 296.697 217.575 325.995 232.991Z" stroke="white" stroke-opacity="0.42"/>
<path fill-rule="evenodd" clip-rule="evenodd" d="M374.929 112.911C441.385 147.879 536.547 143.879 567.505 212.295C599.43 282.849 557.925 363.657 518.567 430.351C482.165 492.038 429.001 542.957 360.34 563.353C293.51 583.204 224.253 565.771 160.941 536.583C94.6561 506.024 11.9476 470.536 2.13204 398.209C-7.46972 327.457 89.9513 293.77 119.146 228.611C151.608 156.159 105.065 39.749 177.402 7.02858C248.161 -24.9783 306.201 76.7477 374.929 112.911Z" stroke="white" stroke-opacity="0.42"/>
</svg>
