<svg width="428" height="393" viewBox="0 0 428 393" fill="none" xmlns="http://www.w3.org/2000/svg">
<g filter="url(#filter0_d_1_36)">
<rect x="33.6733" y="31" width="360.839" height="323" rx="36" fill="white"/>
<rect x="34.1733" y="31.5" width="359.839" height="322" rx="35.5" stroke="#FFC923"/>
</g>
<g filter="url(#filter1_i_1_36)">
<path d="M297.01 312.141C297.088 312.688 297.595 313.068 298.141 312.99L307.051 311.717C307.598 311.639 307.978 311.133 307.899 310.586C307.821 310.039 307.315 309.659 306.768 309.737L298.849 310.869L297.717 302.949C297.639 302.402 297.133 302.022 296.586 302.101C296.039 302.179 295.659 302.685 295.737 303.232L297.01 312.141ZM315.863 309.372L315.338 308.521L315.863 309.372ZM315.338 308.521L314.233 309.202L315.284 310.904L316.388 310.223L315.338 308.521ZM316.729 318H317.124V316H316.729V318ZM299.003 308.996L297.2 311.4L298.8 312.6L300.603 310.196L299.003 308.996ZM321.429 310.869C316.911 302.21 304.871 301.171 299.003 308.996L300.603 310.196C305.58 303.56 315.812 304.427 319.656 311.794L321.429 310.869ZM317.124 318C320.785 318 323.116 314.101 321.429 310.869L319.656 311.794C320.655 313.708 319.268 316 317.124 316V318ZM314.233 309.202C310.157 311.717 311.94 318 316.729 318V316C313.955 316 312.923 312.361 315.284 310.904L314.233 309.202ZM336.726 311.312C331.157 305.434 322.229 304.269 315.338 308.521L316.388 310.223C322.473 306.468 330.357 307.497 335.274 312.688L336.726 311.312Z" fill="#FFC923"/>
</g>
<path d="M168.63 95.7823L168.63 95.7823C168.332 95.7547 168.048 95.646 167.807 95.4686C167.567 95.2913 167.379 95.0522 167.261 94.7772C167.261 94.7772 167.261 94.7771 167.261 94.7771L165.058 89.632C164.966 89.4573 164.729 89.454 164.634 89.634L162.431 94.7788C162.431 94.7788 162.431 94.7789 162.431 94.7789C162.313 95.0538 162.125 95.2929 161.885 95.4702C161.644 95.6476 161.36 95.7564 161.062 95.784L161.062 95.784L155.699 96.2763C155.524 96.3108 155.424 96.5537 155.568 96.7113L159.606 100.179L159.606 100.18C160.075 100.583 160.281 101.212 160.157 101.814L160.157 101.815L158.981 107.451C158.948 107.678 159.169 107.798 159.321 107.724L164.005 104.917L168.63 95.7823ZM168.63 95.7823L173.993 96.2747M168.63 95.7823L173.993 96.2747M173.993 96.2747C174.17 96.3092 174.269 96.5507 174.124 96.7097L170.088 100.181C170.088 100.181 170.088 100.181 170.088 100.181C169.62 100.584 169.41 101.212 169.537 101.817L173.993 96.2747ZM164.847 104.683C165.143 104.683 165.434 104.764 165.688 104.917L164.847 104.683ZM164.847 104.683C164.55 104.683 164.26 104.764 164.006 104.917L164.847 104.683ZM169.537 101.818L170.713 107.452C170.746 107.682 170.524 107.8 170.373 107.726L165.689 104.917L169.537 101.818Z" stroke="#FDD835"/>
<path d="M192.957 95.7823L192.956 95.7823C192.659 95.7547 192.375 95.646 192.134 95.4686C191.894 95.2913 191.705 95.0522 191.588 94.7772C191.588 94.7772 191.587 94.7771 191.587 94.7771L189.384 89.632C189.293 89.4573 189.055 89.454 188.961 89.634L186.758 94.7788C186.758 94.7788 186.758 94.7789 186.758 94.7789C186.64 95.0538 186.452 95.2929 186.211 95.4702C185.971 95.6476 185.687 95.7564 185.389 95.784L185.389 95.784L180.025 96.2763C179.851 96.3108 179.751 96.5537 179.895 96.7113L183.932 100.179L183.933 100.18C184.402 100.583 184.608 101.212 184.484 101.814L184.483 101.815L183.308 107.451C183.275 107.678 183.496 107.798 183.648 107.724L188.332 104.917L192.957 95.7823ZM192.957 95.7823L198.32 96.2747M192.957 95.7823L198.32 96.2747M198.32 96.2747C198.496 96.3092 198.596 96.5507 198.451 96.7097L194.414 100.181C194.414 100.181 194.414 100.181 194.414 100.181C193.947 100.584 193.736 101.212 193.864 101.817L198.32 96.2747ZM189.173 104.683C189.47 104.683 189.76 104.764 190.015 104.917L189.173 104.683ZM189.173 104.683C188.877 104.683 188.586 104.764 188.332 104.917L189.173 104.683ZM193.864 101.818L195.039 107.452C195.072 107.682 194.851 107.8 194.699 107.726L190.015 104.917L193.864 101.818Z" stroke="#FDD835"/>
<path d="M217.284 95.7823L217.283 95.7823C216.986 95.7547 216.702 95.646 216.461 95.4686C216.22 95.2913 216.032 95.0522 215.914 94.7772C215.914 94.7772 215.914 94.7771 215.914 94.7771L213.711 89.632C213.62 89.4573 213.382 89.454 213.288 89.634L211.085 94.7788C211.085 94.7788 211.085 94.7789 211.085 94.7789C210.967 95.0538 210.779 95.2929 210.538 95.4702C210.297 95.6476 210.014 95.7564 209.716 95.784L209.716 95.784L204.352 96.2763C204.178 96.3108 204.078 96.5537 204.221 96.7113L208.259 100.179L208.26 100.18C208.729 100.583 208.935 101.212 208.81 101.814L208.81 101.815L207.634 107.451C207.602 107.678 207.823 107.798 207.975 107.724L212.659 104.917L217.284 95.7823ZM217.284 95.7823L222.647 96.2747M217.284 95.7823L222.647 96.2747M222.647 96.2747C222.823 96.3092 222.923 96.5507 222.778 96.7097L218.741 100.181C218.741 100.181 218.741 100.181 218.741 100.181C218.274 100.584 218.063 101.212 218.19 101.817L222.647 96.2747ZM213.5 104.683C213.797 104.683 214.087 104.764 214.342 104.917L213.5 104.683ZM213.5 104.683C213.204 104.683 212.913 104.764 212.659 104.917L213.5 104.683ZM218.191 101.818L219.366 107.452C219.399 107.682 219.178 107.8 219.026 107.726L214.342 104.917L218.191 101.818Z" stroke="#FDD835"/>
<path d="M241.61 95.7823L241.61 95.7823C241.312 95.7547 241.028 95.646 240.788 95.4686C240.547 95.2913 240.359 95.0522 240.241 94.7772C240.241 94.7772 240.241 94.7771 240.241 94.7771L238.038 89.632C237.946 89.4573 237.709 89.454 237.615 89.634L235.411 94.7788C235.411 94.7788 235.411 94.7789 235.411 94.7789C235.294 95.0538 235.105 95.2929 234.865 95.4702C234.624 95.6476 234.34 95.7564 234.043 95.784L234.042 95.784L228.679 96.2763C228.504 96.3108 228.405 96.5537 228.548 96.7113L232.586 100.179L232.586 100.18C233.055 100.583 233.262 101.212 233.137 101.814L233.137 101.815L231.961 107.451C231.929 107.678 232.149 107.798 232.302 107.724L236.985 104.917L241.61 95.7823ZM241.61 95.7823L246.974 96.2747M241.61 95.7823L246.974 96.2747M246.974 96.2747C247.15 96.3092 247.249 96.5507 247.104 96.7097L243.068 100.181C243.068 100.181 243.068 100.181 243.068 100.181C242.6 100.584 242.39 101.212 242.517 101.817L246.974 96.2747ZM237.827 104.683C238.124 104.683 238.414 104.764 238.668 104.917L237.827 104.683ZM237.827 104.683C237.53 104.683 237.24 104.764 236.986 104.917L237.827 104.683ZM242.517 101.818L243.693 107.452C243.726 107.682 243.505 107.8 243.353 107.726L238.669 104.917L242.517 101.818Z" stroke="#FDD835"/>
<path d="M265.937 95.7823L265.936 95.7823C265.639 95.7547 265.355 95.646 265.114 95.4686C264.874 95.2913 264.685 95.0522 264.568 94.7772C264.568 94.7772 264.568 94.7771 264.568 94.7771L262.364 89.632C262.273 89.4573 262.035 89.454 261.941 89.634L259.738 94.7788C259.738 94.7788 259.738 94.7789 259.738 94.7789C259.62 95.0538 259.432 95.2929 259.191 95.4702C258.951 95.6476 258.667 95.7564 258.369 95.784L258.369 95.784L253.006 96.2763C252.831 96.3108 252.731 96.5537 252.875 96.7113L256.913 100.179L256.913 100.18C257.382 100.583 257.588 101.212 257.464 101.814L257.464 101.815L256.288 107.451C256.255 107.678 256.476 107.798 256.628 107.724L261.312 104.917L265.937 95.7823ZM265.937 95.7823L271.3 96.2747M265.937 95.7823L271.3 96.2747M271.3 96.2747C271.477 96.3092 271.576 96.5507 271.431 96.7097L267.395 100.181C267.395 100.181 267.395 100.181 267.395 100.181C266.927 100.584 266.717 101.212 266.844 101.817L271.3 96.2747ZM262.154 104.683C262.45 104.683 262.741 104.764 262.995 104.917L262.154 104.683ZM262.154 104.683C261.857 104.683 261.567 104.764 261.312 104.917L262.154 104.683ZM266.844 101.818L268.02 107.452C268.053 107.682 267.831 107.8 267.68 107.726L262.995 104.917L266.844 101.818Z" stroke="#FDD835"/>
<defs>
<filter id="filter0_d_1_36" x="-0.726662" y="0.599998" width="429.639" height="391.8" filterUnits="userSpaceOnUse" color-interpolation-filters="sRGB">
<feFlood flood-opacity="0" result="BackgroundImageFix"/>
<feColorMatrix in="SourceAlpha" type="matrix" values="0 0 0 0 0 0 0 0 0 0 0 0 0 0 0 0 0 0 127 0" result="hardAlpha"/>
<feOffset dy="4"/>
<feGaussianBlur stdDeviation="17.2"/>
<feComposite in2="hardAlpha" operator="out"/>
<feColorMatrix type="matrix" values="0 0 0 0 0 0 0 0 0 0 0 0 0 0 0 0 0 0 0.25 0"/>
<feBlend mode="normal" in2="BackgroundImageFix" result="effect1_dropShadow_1_36"/>
<feBlend mode="normal" in="SourceGraphic" in2="effect1_dropShadow_1_36" result="shape"/>
</filter>
<filter id="filter1_i_1_36" x="295.727" y="302.09" width="40.999" height="19.9097" filterUnits="userSpaceOnUse" color-interpolation-filters="sRGB">
<feFlood flood-opacity="0" result="BackgroundImageFix"/>
<feBlend mode="normal" in="SourceGraphic" in2="BackgroundImageFix" result="shape"/>
<feColorMatrix in="SourceAlpha" type="matrix" values="0 0 0 0 0 0 0 0 0 0 0 0 0 0 0 0 0 0 127 0" result="hardAlpha"/>
<feOffset dy="4"/>
<feGaussianBlur stdDeviation="2"/>
<feComposite in2="hardAlpha" operator="arithmetic" k2="-1" k3="1"/>
<feColorMatrix type="matrix" values="0 0 0 0 1 0 0 0 0 0.788235 0 0 0 0 0.137255 0 0 0 1 0"/>
<feBlend mode="normal" in2="shape" result="effect1_innerShadow_1_36"/>
</filter>
</defs>
</svg>
