<svg width="1385" height="795" viewBox="0 0 1385 795" fill="none" xmlns="http://www.w3.org/2000/svg">
<path d="M1246 215.561C1246 195.679 1229.88 179.561 1210 179.561H57.0005C37.1183 179.561 21.0005 195.679 21.0005 215.561V410.061C21.0005 429.943 37.1183 446.061 57.0005 446.061H270.419C283.154 446.061 294.014 455.284 296.076 467.851L304.925 521.771C306.987 534.338 317.847 543.561 330.582 543.561H1210C1229.88 543.561 1246 527.443 1246 507.561V215.561Z" fill="#035146"/>
<path d="M240.807 181.153C241.133 180.708 241.038 180.082 240.593 179.755C240.148 179.428 239.522 179.524 239.195 179.969L240.807 181.153ZM164.83 275.084L165.484 275.841L164.83 275.084ZM192.754 244.879L191.948 244.287L192.754 244.879ZM46.3927 288.326L45.8651 289.175L46.3927 288.326ZM159.766 279.455L159.113 278.698L159.766 279.455ZM23.473 275.267L25.339 276.426L26.3942 274.727L24.5282 273.568L23.473 275.267ZM29.071 278.744L32.803 281.062L33.8583 279.363L30.1263 277.045L29.071 278.744ZM36.535 283.38L40.267 285.698L41.3223 283.999L37.5903 281.681L36.535 283.38ZM43.999 288.016L45.8651 289.175L46.9203 287.477L45.0543 286.317L43.999 288.016ZM45.8651 289.175C46.4474 289.537 47.0325 289.892 47.6202 290.24L48.6396 288.52C48.0639 288.179 47.4908 287.831 46.9203 287.477L45.8651 289.175ZM51.1895 292.255C52.397 292.903 53.6144 293.524 54.8406 294.117L55.7116 292.317C54.5106 291.736 53.3183 291.128 52.1356 290.493L51.1895 292.255ZM58.5672 295.823C59.8244 296.367 61.0899 296.883 62.3627 297.371L63.0783 295.503C61.8318 295.026 60.5925 294.52 59.3612 293.988L58.5672 295.823ZM66.2203 298.756C67.5184 299.191 68.823 299.598 70.1333 299.976L70.6881 298.055C69.4049 297.684 68.1273 297.286 66.8561 296.86L66.2203 298.756ZM74.0944 301.029C75.4239 301.353 76.7583 301.648 78.0966 301.914L78.4868 299.952C77.1762 299.692 75.8694 299.403 74.5673 299.086L74.0944 301.029ZM82.133 302.629C83.4847 302.838 84.8394 303.019 86.1961 303.172L86.4191 301.184C85.0904 301.035 83.7637 300.858 82.4399 300.652L82.133 302.629ZM90.2783 303.543C91.6423 303.638 93.0073 303.704 94.3725 303.741L94.4271 301.742C93.0901 301.705 91.7531 301.641 90.4173 301.548L90.2783 303.543ZM98.4713 303.767C99.8378 303.746 101.204 303.697 102.567 303.619L102.454 301.623C101.118 301.699 99.78 301.747 98.4416 301.767L98.4713 303.767ZM106.654 303.3C108.013 303.164 109.37 303 110.723 302.808L110.441 300.828C109.116 301.016 107.787 301.177 106.456 301.309L106.654 303.3ZM114.768 302.145C116.111 301.896 117.449 301.618 118.781 301.312L118.334 299.363C117.029 299.663 115.718 299.935 114.403 300.179L114.768 302.145ZM122.756 300.311C124.073 299.95 125.383 299.56 126.685 299.142L126.075 297.238C124.799 297.647 123.516 298.028 122.227 298.382L122.756 300.311ZM130.562 297.809C131.842 297.338 133.114 296.839 134.377 296.312L133.608 294.466C132.371 294.982 131.125 295.47 129.871 295.932L130.562 297.809ZM138.127 294.656C139.362 294.078 140.587 293.473 141.802 292.842L140.879 291.067C139.69 291.686 138.489 292.278 137.28 292.844L138.127 294.656ZM145.397 290.873C146.579 290.194 147.749 289.487 148.906 288.755L147.836 287.065C146.703 287.783 145.557 288.474 144.4 289.14L145.397 290.873ZM152.322 286.489C153.441 285.713 154.547 284.91 155.639 284.082L154.43 282.488C153.36 283.3 152.277 284.086 151.181 284.846L152.322 286.489ZM158.851 281.537C159.378 281.101 159.9 280.66 160.419 280.212L159.113 278.698C158.604 279.136 158.092 279.569 157.577 279.995L158.851 281.537ZM160.419 280.212L161.686 279.119L160.379 277.605L159.113 278.698L160.419 280.212ZM164.218 276.934L165.484 275.841L164.177 274.327L162.911 275.42L164.218 276.934ZM165.484 275.841C166.007 275.39 166.527 274.936 167.045 274.479L165.721 272.979C165.209 273.431 164.694 273.881 164.177 274.327L165.484 275.841ZM170.121 271.701C171.136 270.763 172.14 269.814 173.134 268.854L171.744 267.416C170.761 268.366 169.768 269.304 168.764 270.232L170.121 271.701ZM176.081 265.941C177.053 264.958 178.014 263.965 178.963 262.962L177.51 261.587C176.571 262.58 175.621 263.563 174.66 264.534L176.081 265.941ZM181.776 259.918C182.703 258.893 183.617 257.858 184.521 256.812L183.007 255.505C182.114 256.539 181.209 257.563 180.293 258.577L181.776 259.918ZM187.194 253.645C188.073 252.58 188.941 251.504 189.796 250.419L188.225 249.181C187.379 250.255 186.521 251.318 185.652 252.372L187.194 253.645ZM192.324 247.135C192.739 246.583 193.151 246.028 193.56 245.471L191.948 244.287C191.544 244.838 191.136 245.387 190.726 245.933L192.324 247.135ZM193.56 245.471L194.741 243.863L193.13 242.679L191.948 244.287L193.56 245.471ZM197.104 240.648L199.466 237.432L197.854 236.248L195.492 239.464L197.104 240.648ZM201.828 234.216L204.191 231L202.579 229.816L200.217 233.032L201.828 234.216ZM206.553 227.784L208.915 224.568L207.303 223.384L204.941 226.6L206.553 227.784ZM211.278 221.352L213.64 218.136L212.028 216.952L209.666 220.168L211.278 221.352ZM216.002 214.92L218.365 211.704L216.753 210.52L214.39 213.736L216.002 214.92ZM220.727 208.488L223.089 205.272L221.477 204.088L219.115 207.304L220.727 208.488ZM225.452 202.057L227.814 198.841L226.202 197.657L223.84 200.873L225.452 202.057ZM230.176 195.625L232.538 192.409L230.927 191.225L228.564 194.441L230.176 195.625ZM234.901 189.193L237.263 185.977L235.651 184.793L233.289 188.009L234.901 189.193ZM239.625 182.761L240.807 181.153L239.195 179.969L238.014 181.577L239.625 182.761Z" fill="white"/>
<path fill-rule="evenodd" clip-rule="evenodd" d="M1312.22 164.524C1324.71 207.086 1365.55 245.796 1349.24 287.059C1332.42 329.612 1281.04 345.242 1236.54 355.978C1195.38 365.909 1151.9 364.304 1115 343.574C1079.08 323.398 1058 286.859 1044.35 248.007C1030.06 207.331 1011.1 157.664 1037.77 123.758C1063.86 90.5905 1118.23 118.05 1157.9 103.635C1202 87.6062 1232.28 19.9971 1275.92 37.2167C1318.61 54.0608 1299.3 120.507 1312.22 164.524Z" stroke="white" stroke-opacity="0.42"/>
<path fill-rule="evenodd" clip-rule="evenodd" d="M1292.71 172.618C1303.25 208.529 1337.67 241.201 1323.95 276.006C1309.79 311.899 1266.51 325.065 1229.02 334.107C1194.35 342.469 1157.71 341.099 1126.61 323.597C1096.34 306.562 1078.57 275.729 1067.05 242.947C1054.99 208.626 1039.01 166.718 1061.46 138.123C1083.43 110.152 1129.25 133.338 1162.67 121.192C1199.82 107.686 1225.31 50.66 1262.08 65.2034C1298.06 79.4296 1281.81 135.479 1292.71 172.618Z" stroke="white" stroke-opacity="0.42"/>
<path fill-rule="evenodd" clip-rule="evenodd" d="M1270.55 181.458C1278.85 209.743 1305.97 235.475 1295.15 262.892C1283.99 291.166 1249.88 301.542 1220.34 308.668C1193.02 315.258 1164.15 314.183 1139.64 300.4C1115.79 286.985 1101.79 262.7 1092.72 236.879C1083.22 209.846 1070.63 176.837 1088.32 154.312C1105.64 132.277 1141.74 150.535 1168.07 140.964C1197.36 130.322 1217.44 85.4004 1246.42 96.8521C1274.77 108.054 1261.96 152.205 1270.55 181.458Z" stroke="white" stroke-opacity="0.42"/>
<path fill-rule="evenodd" clip-rule="evenodd" d="M1250.95 189.271C1257.27 210.818 1277.95 230.415 1269.69 251.305C1261.18 272.848 1235.16 280.761 1212.63 286.197C1191.79 291.225 1169.78 290.413 1151.1 279.919C1132.91 269.705 1122.24 251.208 1115.33 231.539C1108.09 210.947 1098.5 185.803 1112 168.637C1125.21 151.846 1152.73 165.747 1172.82 158.448C1195.15 150.333 1210.48 116.105 1232.58 124.822C1254.19 133.349 1244.41 166.988 1250.95 189.271Z" stroke="white" stroke-opacity="0.42"/>
<path fill-rule="evenodd" clip-rule="evenodd" d="M1335.32 155.293C1350.16 205.837 1398.63 251.814 1379.29 300.809C1359.34 351.335 1298.37 369.882 1245.56 382.62C1196.72 394.401 1145.12 392.484 1101.33 367.859C1058.7 343.891 1033.67 300.496 1017.46 254.358C1000.49 206.052 977.983 147.069 1009.62 106.813C1040.57 67.4351 1105.1 100.056 1152.17 82.9491C1204.51 63.9268 1240.42 -16.3492 1292.22 4.10987C1342.88 24.1228 1319.98 103.021 1335.32 155.293Z" stroke="white" stroke-opacity="0.42"/>
<path fill-rule="evenodd" clip-rule="evenodd" d="M304.117 583.335C288.438 624.828 297.704 680.33 259.823 703.432C220.759 727.256 170.34 708.772 128.356 690.526C89.5244 673.649 55.7898 646.167 38.8332 607.389C22.3289 569.645 27.5188 527.779 40.0365 488.548C53.1421 447.475 67.9444 396.416 109.657 385.426C150.46 374.675 177.305 429.352 217.649 441.751C262.509 455.538 327.409 419.824 351.863 459.865C375.783 499.032 320.332 540.424 304.117 583.335Z" stroke="white" stroke-opacity="0.42"/>
<path fill-rule="evenodd" clip-rule="evenodd" d="M283.673 578.041C270.445 613.05 278.229 659.868 246.302 679.373C213.376 699.487 170.902 683.915 135.535 668.54C102.823 654.32 74.4098 631.149 60.1386 598.443C46.248 566.609 50.6384 531.289 61.2021 498.189C72.2618 463.534 84.7554 420.454 119.906 411.165C154.291 402.079 176.887 448.193 210.876 458.636C248.669 470.249 303.367 440.093 323.955 473.861C344.093 506.893 297.354 541.834 283.673 578.041Z" stroke="white" stroke-opacity="0.42"/>
<path fill-rule="evenodd" clip-rule="evenodd" d="M260.656 571.738C250.236 599.314 256.376 636.193 231.219 651.553C205.277 667.393 171.806 655.122 143.935 643.007C118.157 631.801 95.7651 613.547 84.5157 587.782C73.5663 562.705 77.0217 534.884 85.3417 508.812C94.0525 481.516 103.892 447.584 131.589 440.271C158.683 433.118 176.494 469.445 203.278 477.675C233.06 486.826 276.158 463.08 292.384 489.681C308.257 515.702 271.432 543.22 260.656 571.738Z" stroke="white" stroke-opacity="0.42"/>
<path fill-rule="evenodd" clip-rule="evenodd" d="M240.31 566.167C232.372 587.173 237.065 615.271 217.886 626.966C198.108 639.027 172.581 629.668 151.325 620.43C131.664 611.886 114.584 597.972 105.998 578.34C97.6415 559.232 100.268 538.037 106.605 518.176C113.24 497.383 120.734 471.534 141.852 465.971C162.511 460.529 176.103 488.21 196.529 494.488C219.242 501.469 252.1 483.389 264.481 503.66C276.593 523.489 248.519 544.443 240.31 566.167Z" stroke="white" stroke-opacity="0.42"/>
<path fill-rule="evenodd" clip-rule="evenodd" d="M328.119 589.891C309.499 639.166 320.48 705.069 275.518 732.512C229.152 760.813 169.323 738.879 119.504 717.225C73.4256 697.196 33.3991 664.572 13.287 618.53C-6.28856 573.716 -0.117418 524.001 14.7493 477.413C30.3142 428.636 47.8954 368.002 97.4006 354.94C145.827 342.162 177.67 407.08 225.544 421.792C278.778 438.151 355.808 395.724 384.816 443.263C413.192 489.765 347.375 538.931 328.119 589.891Z" stroke="white" stroke-opacity="0.42"/>
<circle cx="248.501" cy="499.059" r="6.5" fill="#035146"/>
<circle cx="211.501" cy="499.059" r="6.5" fill="#06CBF8"/>
<circle cx="137.501" cy="499.059" r="6.5" fill="#F65A0E"/>
<circle cx="174.501" cy="499.059" r="6.5" fill="#D61737"/>
<circle cx="100.501" cy="499.059" r="6.5" fill="#F9B121"/>
<circle cx="63.5006" cy="499.059" r="6.5" fill="#8C8A91"/>
<g filter="url(#filter0_d_1_3080)">
<rect x="414.001" y="379.559" width="702" height="377" rx="36" fill="white"/>
<rect x="414.501" y="380.059" width="701" height="376" rx="35.5" stroke="#FFC923"/>
</g>
<g filter="url(#filter1_i_1_3080)">
<path d="M887.009 708.734C887.082 709.281 887.585 709.666 888.132 709.594L897.054 708.412C897.602 708.339 897.987 707.837 897.914 707.289C897.842 706.742 897.339 706.357 896.791 706.429L888.861 707.48L887.81 699.549C887.738 699.002 887.235 698.617 886.687 698.689C886.14 698.762 885.755 699.264 885.827 699.812L887.009 708.734ZM912.952 704.039L911.62 704.844L912.654 706.556L913.986 705.751L912.952 704.039ZM914.883 716.559H915.228V714.559H914.883V716.559ZM889.948 704.416L887.207 707.994L888.795 709.211L891.536 705.632L889.948 704.416ZM920.858 707.091C914.57 695.291 898.096 693.779 889.948 704.416L891.536 705.632C898.781 696.174 913.476 697.491 919.093 708.031L920.858 707.091ZM915.228 716.559C920.08 716.559 923.125 711.345 920.858 707.091L919.093 708.031C920.665 710.982 918.538 714.559 915.228 714.559V716.559ZM911.62 704.844C906.148 708.149 908.492 716.559 914.883 716.559V714.559C910.517 714.559 908.916 708.814 912.654 706.556L911.62 704.844ZM942.719 707.907C934.911 699.838 922.563 698.233 912.952 704.039L913.986 705.751C922.799 700.427 934.122 701.898 941.282 709.298L942.719 707.907Z" fill="#FFC923"/>
</g>
<path d="M152.024 256.558L162.349 246.233C162.922 245.659 163.598 245.25 164.377 245.004C165.155 244.758 165.954 244.717 166.774 244.881L169.969 245.557C167.757 248.179 166.016 250.555 164.745 252.686C163.475 254.817 162.246 257.398 161.058 260.43L152.024 256.558ZM164.623 262.151C165.565 259.201 166.846 256.414 168.465 253.792C170.084 251.17 172.04 248.712 174.333 246.417C177.939 242.812 182.056 240.118 186.686 238.337C191.316 236.555 195.639 236.012 199.654 236.707C200.35 240.722 199.818 245.045 198.056 249.675C196.294 254.304 193.61 258.422 190.005 262.028C187.751 264.281 185.293 266.238 182.63 267.898C179.967 269.558 177.16 270.859 174.21 271.8L164.623 262.151ZM181.585 254.776C182.527 255.718 183.685 256.189 185.059 256.189C186.432 256.189 187.589 255.718 188.53 254.776C189.472 253.833 189.943 252.676 189.943 251.304C189.943 249.933 189.472 248.775 188.53 247.831C187.587 246.888 186.43 246.417 185.059 246.417C183.687 246.417 182.529 246.888 181.585 247.831C180.643 248.773 180.171 249.931 180.171 251.304C180.171 252.678 180.643 253.835 181.585 254.776ZM179.864 284.337L175.931 275.303C178.963 274.114 181.555 272.885 183.707 271.615C185.858 270.345 188.245 268.604 190.865 266.391L191.48 269.587C191.644 270.407 191.603 271.216 191.357 272.016C191.111 272.816 190.701 273.502 190.128 274.074L179.864 284.337ZM155.957 270.017C157.391 268.583 159.132 267.856 161.181 267.834C163.229 267.813 164.971 268.52 166.405 269.956C167.839 271.39 168.556 273.131 168.556 275.18C168.556 277.228 167.839 278.97 166.405 280.404C165.381 281.428 163.67 282.309 161.274 283.046C158.878 283.784 155.569 284.439 151.348 285.013C151.921 280.793 152.577 277.495 153.314 275.118C154.052 272.742 154.933 271.042 155.957 270.017Z" fill="white"/>
<defs>
<filter id="filter0_d_1_3080" x="379.601" y="349.159" width="770.8" height="445.8" filterUnits="userSpaceOnUse" color-interpolation-filters="sRGB">
<feFlood flood-opacity="0" result="BackgroundImageFix"/>
<feColorMatrix in="SourceAlpha" type="matrix" values="0 0 0 0 0 0 0 0 0 0 0 0 0 0 0 0 0 0 127 0" result="hardAlpha"/>
<feOffset dy="4"/>
<feGaussianBlur stdDeviation="17.2"/>
<feComposite in2="hardAlpha" operator="out"/>
<feColorMatrix type="matrix" values="0 0 0 0 0 0 0 0 0 0 0 0 0 0 0 0 0 0 0.25 0"/>
<feBlend mode="normal" in2="BackgroundImageFix" result="effect1_dropShadow_1_3080"/>
<feBlend mode="normal" in="SourceGraphic" in2="effect1_dropShadow_1_3080" result="shape"/>
</filter>
<filter id="filter1_i_1_3080" x="885.819" y="697.267" width="56.9008" height="23.2924" filterUnits="userSpaceOnUse" color-interpolation-filters="sRGB">
<feFlood flood-opacity="0" result="BackgroundImageFix"/>
<feBlend mode="normal" in="SourceGraphic" in2="BackgroundImageFix" result="shape"/>
<feColorMatrix in="SourceAlpha" type="matrix" values="0 0 0 0 0 0 0 0 0 0 0 0 0 0 0 0 0 0 127 0" result="hardAlpha"/>
<feOffset dy="4"/>
<feGaussianBlur stdDeviation="2"/>
<feComposite in2="hardAlpha" operator="arithmetic" k2="-1" k3="1"/>
<feColorMatrix type="matrix" values="0 0 0 0 1 0 0 0 0 0.788235 0 0 0 0 0.137255 0 0 0 1 0"/>
<feBlend mode="normal" in2="shape" result="effect1_innerShadow_1_3080"/>
</filter>
</defs>
</svg>
