<svg width="1391" height="449" viewBox="0 0 1391 449" fill="none" xmlns="http://www.w3.org/2000/svg">
<path d="M217.807 192.153C218.133 191.708 218.038 191.082 217.593 190.755C217.148 190.428 216.522 190.524 216.195 190.969L217.807 192.153ZM141.83 286.084L142.484 286.841L141.83 286.084ZM169.754 255.879L168.948 255.287L169.754 255.879ZM23.3927 299.326L22.8651 300.175L23.3927 299.326ZM136.766 290.455L136.113 289.698L136.766 290.455ZM0.472978 286.267L2.33898 287.426L3.39425 285.727L1.52824 284.568L0.472978 286.267ZM6.071 289.744L9.80301 292.062L10.8583 290.363L7.12626 288.045L6.071 289.744ZM13.535 294.38L17.267 296.698L18.3223 294.999L14.5903 292.681L13.535 294.38ZM20.999 299.016L22.8651 300.175L23.9203 298.477L22.0543 297.317L20.999 299.016ZM22.8651 300.175C23.4474 300.537 24.0325 300.892 24.6202 301.24L25.6396 299.52C25.0639 299.179 24.4908 298.831 23.9203 298.477L22.8651 300.175ZM28.1895 303.255C29.397 303.903 30.6144 304.524 31.8406 305.117L32.7116 303.317C31.5106 302.736 30.3183 302.128 29.1356 301.493L28.1895 303.255ZM35.5672 306.823C36.8244 307.367 38.0899 307.883 39.3627 308.371L40.0783 306.503C38.8318 306.026 37.5925 305.52 36.3612 304.988L35.5672 306.823ZM43.2203 309.756C44.5184 310.191 45.823 310.598 47.1333 310.976L47.6881 309.055C46.4049 308.684 45.1273 308.286 43.8561 307.86L43.2203 309.756ZM51.0944 312.029C52.4239 312.353 53.7583 312.648 55.0966 312.914L55.4868 310.952C54.1762 310.692 52.8694 310.403 51.5673 310.086L51.0944 312.029ZM59.133 313.629C60.4847 313.838 61.8394 314.019 63.1961 314.172L63.4191 312.184C62.0904 312.035 60.7637 311.858 59.4399 311.652L59.133 313.629ZM67.2783 314.543C68.6423 314.638 70.0073 314.704 71.3725 314.741L71.4271 312.742C70.0901 312.705 68.7531 312.641 67.4173 312.548L67.2783 314.543ZM75.4713 314.767C76.8378 314.746 78.2035 314.697 79.5675 314.619L79.4535 312.623C78.1176 312.699 76.78 312.747 75.4416 312.767L75.4713 314.767ZM83.6538 314.3C85.0132 314.164 86.37 314 87.723 313.808L87.4413 311.828C86.1161 312.016 84.7873 312.177 83.4558 312.309L83.6538 314.3ZM91.7679 313.145C93.1107 312.896 94.4488 312.618 95.7814 312.312L95.3338 310.363C94.0287 310.663 92.7181 310.935 91.403 311.179L91.7679 313.145ZM99.7563 311.311C101.073 310.95 102.383 310.56 103.685 310.142L103.075 308.238C101.799 308.647 100.516 309.028 99.2268 309.382L99.7563 311.311ZM107.562 308.809C108.842 308.338 110.114 307.839 111.377 307.312L110.608 305.466C109.371 305.982 108.125 306.47 106.871 306.932L107.562 308.809ZM115.127 305.656C116.362 305.078 117.587 304.473 118.802 303.842L117.879 302.067C116.69 302.686 115.489 303.278 114.28 303.844L115.127 305.656ZM122.397 301.873C123.579 301.194 124.749 300.487 125.906 299.755L124.836 298.065C123.703 298.783 122.557 299.474 121.4 300.14L122.397 301.873ZM129.322 297.489C130.441 296.713 131.547 295.91 132.639 295.082L131.43 293.488C130.36 294.3 129.277 295.086 128.181 295.846L129.322 297.489ZM135.851 292.537C136.378 292.101 136.9 291.66 137.419 291.212L136.113 289.698C135.604 290.136 135.092 290.569 134.577 290.995L135.851 292.537ZM137.419 291.212L138.686 290.119L137.379 288.605L136.113 289.698L137.419 291.212ZM141.218 287.934L142.484 286.841L141.177 285.327L139.911 286.42L141.218 287.934ZM142.484 286.841C143.007 286.39 143.527 285.936 144.045 285.479L142.721 283.979C142.209 284.431 141.694 284.881 141.177 285.327L142.484 286.841ZM147.121 282.701C148.136 281.763 149.14 280.814 150.134 279.854L148.744 278.416C147.761 279.366 146.768 280.304 145.764 281.232L147.121 282.701ZM153.081 276.941C154.053 275.958 155.014 274.965 155.963 273.962L154.51 272.587C153.571 273.58 152.621 274.563 151.66 275.534L153.081 276.941ZM158.776 270.918C159.703 269.893 160.617 268.858 161.521 267.812L160.007 266.505C159.114 267.539 158.209 268.563 157.293 269.577L158.776 270.918ZM164.194 264.645C165.073 263.58 165.941 262.504 166.796 261.419L165.225 260.181C164.379 261.255 163.521 262.318 162.652 263.372L164.194 264.645ZM169.324 258.135C169.739 257.583 170.151 257.028 170.56 256.471L168.948 255.287C168.544 255.838 168.136 256.387 167.726 256.933L169.324 258.135ZM170.56 256.471L171.741 254.863L170.13 253.679L168.948 255.287L170.56 256.471ZM174.104 251.648L176.466 248.432L174.854 247.248L172.492 250.464L174.104 251.648ZM178.828 245.216L181.191 242L179.579 240.816L177.217 244.032L178.828 245.216ZM183.553 238.784L185.915 235.568L184.303 234.384L181.941 237.6L183.553 238.784ZM188.278 232.352L190.64 229.136L189.028 227.952L186.666 231.168L188.278 232.352ZM193.002 225.92L195.365 222.704L193.753 221.52L191.39 224.736L193.002 225.92ZM197.727 219.488L200.089 216.272L198.477 215.088L196.115 218.304L197.727 219.488ZM202.452 213.057L204.814 209.841L203.202 208.657L200.84 211.873L202.452 213.057ZM207.176 206.625L209.538 203.409L207.927 202.225L205.564 205.441L207.176 206.625ZM211.901 200.193L214.263 196.977L212.651 195.793L210.289 199.009L211.901 200.193ZM216.625 193.761L217.807 192.153L216.195 190.969L215.014 192.577L216.625 193.761Z" fill="white"/>
<path fill-rule="evenodd" clip-rule="evenodd" d="M1289.22 175.524C1301.71 218.086 1342.55 256.796 1326.24 298.059C1309.42 340.612 1258.04 356.242 1213.54 366.978C1172.38 376.909 1128.9 375.304 1092 354.574C1056.08 334.398 1035 297.859 1021.35 259.007C1007.06 218.331 988.105 168.664 1014.77 134.758C1040.86 101.59 1095.23 129.05 1134.9 114.635C1179 98.6062 1209.28 30.9971 1252.92 48.2167C1295.61 65.0608 1276.3 131.507 1289.22 175.524Z" stroke="white" stroke-opacity="0.42"/>
<path fill-rule="evenodd" clip-rule="evenodd" d="M1269.71 183.618C1280.25 219.529 1314.67 252.201 1300.95 287.006C1286.79 322.899 1243.51 336.065 1206.02 345.107C1171.35 353.469 1134.71 352.099 1103.61 334.597C1073.34 317.562 1055.57 286.729 1044.05 253.947C1031.99 219.626 1016.01 177.718 1038.46 149.123C1060.43 121.152 1106.25 144.338 1139.67 132.192C1176.82 118.686 1202.31 61.66 1239.08 76.2034C1275.06 90.4296 1258.81 146.479 1269.71 183.618Z" stroke="white" stroke-opacity="0.42"/>
<path fill-rule="evenodd" clip-rule="evenodd" d="M1247.55 192.458C1255.85 220.743 1282.97 246.475 1272.15 273.892C1260.99 302.166 1226.88 312.542 1197.34 319.668C1170.02 326.258 1141.15 325.183 1116.64 311.4C1092.79 297.985 1078.79 273.7 1069.72 247.879C1060.22 220.846 1047.63 187.837 1065.32 165.312C1082.64 143.277 1118.74 161.535 1145.07 151.964C1174.36 141.322 1194.44 96.4004 1223.42 107.852C1251.77 119.054 1238.96 163.205 1247.55 192.458Z" stroke="white" stroke-opacity="0.42"/>
<path fill-rule="evenodd" clip-rule="evenodd" d="M1227.95 200.271C1234.27 221.818 1254.95 241.415 1246.69 262.305C1238.18 283.848 1212.16 291.761 1189.63 297.197C1168.79 302.225 1146.78 301.413 1128.1 290.919C1109.91 280.705 1099.24 262.208 1092.33 242.539C1085.09 221.947 1075.5 196.803 1089 179.637C1102.21 162.846 1129.73 176.747 1149.82 169.448C1172.15 161.333 1187.48 127.105 1209.58 135.822C1231.19 144.349 1221.41 177.988 1227.95 200.271Z" stroke="white" stroke-opacity="0.42"/>
<path fill-rule="evenodd" clip-rule="evenodd" d="M1312.32 166.293C1327.16 216.837 1375.63 262.814 1356.29 311.809C1336.34 362.335 1275.37 380.882 1222.56 393.62C1173.72 405.401 1122.12 403.484 1078.33 378.859C1035.7 354.891 1010.67 311.496 994.459 265.358C977.489 217.052 954.983 158.069 986.62 117.813C1017.57 78.4351 1082.1 111.056 1129.17 93.9491C1181.51 74.9268 1217.42 -5.34918 1269.22 15.1099C1319.88 35.1228 1296.98 114.021 1312.32 166.293Z" stroke="white" stroke-opacity="0.42"/>
</svg>
