<svg width="428" height="271" viewBox="0 0 428 271" fill="none" xmlns="http://www.w3.org/2000/svg">
<path fill-rule="evenodd" clip-rule="evenodd" d="M504.491 105.913C512.027 131.595 536.67 154.953 526.828 179.852C516.679 205.528 485.678 214.96 458.826 221.438C433.99 227.431 407.753 226.462 385.487 213.954C363.816 201.779 351.093 179.731 342.856 156.288C334.233 131.743 322.796 101.773 338.887 81.3141C354.627 61.3007 387.435 77.87 411.371 69.1718C437.987 59.5 456.254 18.704 482.589 29.0945C508.349 39.2584 496.697 79.3528 504.491 105.913Z" stroke="white" stroke-opacity="0.42"/>
<path fill-rule="evenodd" clip-rule="evenodd" d="M492.721 110.797C499.08 132.466 519.852 152.181 511.569 173.182C503.027 194.84 476.911 202.785 454.289 208.241C433.366 213.287 411.259 212.46 392.495 201.899C374.231 191.62 363.502 173.015 356.554 153.234C349.279 132.525 339.632 107.237 353.182 89.9827C366.436 73.1046 394.085 87.0952 414.249 79.7661C436.671 71.6165 452.047 37.2064 474.239 45.982C495.947 54.5662 486.144 88.3869 492.721 110.797Z" stroke="white" stroke-opacity="0.42"/>
<path fill-rule="evenodd" clip-rule="evenodd" d="M479.345 116.131C484.354 133.199 500.72 148.726 494.19 165.269C487.457 182.33 466.877 188.591 449.051 192.891C432.563 196.868 415.142 196.219 400.357 187.902C385.966 179.807 377.515 165.153 372.041 149.573C366.311 133.261 358.712 113.343 369.391 99.7508C379.837 86.4547 401.623 97.4721 417.513 91.6968C435.182 85.2751 447.302 58.1691 464.788 65.0791C481.893 71.8385 474.165 98.4797 479.345 116.131Z" stroke="white" stroke-opacity="0.42"/>
<path fill-rule="evenodd" clip-rule="evenodd" d="M467.522 120.846C471.337 133.847 483.813 145.672 478.83 158.277C473.691 171.276 457.996 176.052 444.4 179.332C431.826 182.366 418.542 181.876 407.269 175.544C396.297 169.381 389.856 158.219 385.686 146.351C381.32 133.925 375.53 118.753 383.677 108.395C391.647 98.263 408.257 106.651 420.376 102.247C433.852 97.3501 443.101 76.6966 456.434 81.9565C469.476 87.1016 463.576 107.4 467.522 120.846Z" stroke="white" stroke-opacity="0.42"/>
<path fill-rule="evenodd" clip-rule="evenodd" d="M518.433 100.343C527.383 130.842 556.633 158.585 544.96 188.149C532.922 218.636 496.136 229.828 464.272 237.514C434.8 244.623 403.662 243.466 377.236 228.607C351.515 214.145 336.41 187.96 326.63 160.12C316.39 130.972 302.81 95.3804 321.9 71.0899C340.574 47.3286 379.513 67.0126 407.916 56.6899C439.499 45.2117 461.167 -3.22763 492.422 9.11756C522.994 21.1935 509.177 68.8015 518.433 100.343Z" stroke="white" stroke-opacity="0.42"/>
<path d="M86.8051 154.593C87.1327 154.149 87.0378 153.523 86.5932 153.195C86.1485 152.867 85.5225 152.962 85.1949 153.407L86.8051 154.593ZM58.7733 190.954L59.5784 191.547L58.7733 190.954ZM-30.3735 215.6L-29.8471 214.75L-30.3735 215.6ZM-41.5265 209.87L-40.1982 210.692L-39.1452 208.992L-40.4735 208.169L-41.5265 209.87ZM-37.5416 212.337L-34.885 213.982L-33.832 212.282L-36.4886 210.637L-37.5416 212.337ZM-32.2283 215.628L-30.9 216.45L-29.8471 214.75L-31.1754 213.927L-32.2283 215.628ZM-30.9 216.45C-30.3457 216.794 -29.7876 217.127 -29.2258 217.451L-28.2267 215.718C-28.7704 215.405 -29.3106 215.082 -29.8471 214.75L-30.9 216.45ZM-25.7893 219.291C-24.6201 219.87 -23.4378 220.41 -22.2443 220.91L-21.4715 219.065C-22.6263 218.581 -23.7701 218.059 -24.9014 217.499L-25.7893 219.291ZM-18.602 222.301C-17.3705 222.728 -16.1293 223.113 -14.8804 223.459L-14.3473 221.531C-15.5556 221.197 -16.7563 220.824 -17.9478 220.411L-18.602 222.301ZM-11.0918 224.378C-9.81738 224.645 -8.53713 224.871 -7.25304 225.056L-6.96793 223.076C-8.21034 222.897 -9.44898 222.679 -10.6819 222.421L-11.0918 224.378ZM-3.37947 225.489C-2.08279 225.593 -0.784229 225.655 0.514183 225.677L0.547443 223.677C-0.70892 223.656 -1.9654 223.596 -3.22005 223.496L-3.37947 225.489ZM4.41154 225.619C5.70974 225.559 7.00577 225.457 8.29758 225.315L8.0789 223.327C6.82889 223.465 5.57481 223.563 4.31862 223.621L4.41154 225.619ZM12.1566 224.767C13.4359 224.544 14.709 224.28 15.9738 223.976L15.5065 222.032C14.2827 222.326 13.0508 222.581 11.813 222.797L12.1566 224.767ZM19.7329 222.946C20.9727 222.564 22.2023 222.142 23.4197 221.68L22.7107 219.81C21.5328 220.257 20.3432 220.665 19.1437 221.035L19.7329 222.946ZM27.0195 220.183C28.1995 219.648 29.3657 219.074 30.516 218.461L29.576 216.696C28.4631 217.289 27.3349 217.844 26.1933 218.362L27.0195 220.183ZM33.8977 216.521C34.9991 215.841 36.0831 215.125 37.1481 214.371L35.9925 212.738C34.9621 213.468 33.9132 214.161 32.8477 214.818L33.8977 216.521ZM40.2569 212.019C40.7615 211.612 41.2611 211.195 41.7553 210.77L40.4509 209.254C39.9725 209.666 39.4891 210.069 39.0007 210.463L40.2569 212.019ZM41.7553 210.77C42.3086 210.294 42.8572 209.813 43.4012 209.327L42.0686 207.836C41.5339 208.313 40.9946 208.786 40.4509 209.254L41.7553 210.77ZM46.6103 206.349C47.6615 205.336 48.6934 204.304 49.7054 203.253L48.2646 201.865C47.2699 202.899 46.2557 203.913 45.2226 204.909L46.6103 206.349ZM52.682 200.042C53.6539 198.954 54.6054 197.847 55.536 196.722L53.9952 195.447C53.0805 196.552 52.1453 197.64 51.1901 198.71L52.682 200.042ZM58.2634 193.298C58.7071 192.718 59.1454 192.135 59.5784 191.547L57.9682 190.361C57.5427 190.939 57.1118 191.512 56.6758 192.081L58.2634 193.298ZM59.5784 191.547L60.7128 190.008L59.1026 188.821L57.9682 190.361L59.5784 191.547ZM62.9817 186.928L65.2506 183.849L63.6404 182.662L61.3715 185.742L62.9817 186.928ZM67.5195 180.769L69.7884 177.69L68.1782 176.503L65.9093 179.583L67.5195 180.769ZM72.0573 174.61L74.3262 171.531L72.716 170.344L70.4471 173.424L72.0573 174.61ZM76.5951 168.451L78.864 165.371L77.2538 164.185L74.9849 167.265L76.5951 168.451ZM81.1329 162.292L83.4017 159.212L81.7916 158.026L79.5227 161.106L81.1329 162.292ZM85.6706 156.133L86.8051 154.593L85.1949 153.407L84.0605 154.947L85.6706 156.133Z" fill="white"/>
</svg>
