<svg width="31" height="32" viewBox="0 0 31 32" fill="none" xmlns="http://www.w3.org/2000/svg">
<path d="M3.16453 14.1L8.58953 8.49999C8.89092 8.18888 9.24613 7.96665 9.65516 7.83332C10.0642 7.69999 10.484 7.67776 10.9145 7.76665L12.5937 8.13332C11.4312 9.55554 10.5163 10.8444 9.84891 12C9.18155 13.1555 8.53572 14.5555 7.91141 16.2L3.16453 14.1ZM9.78433 17.1333C10.2795 15.5333 10.9524 14.0222 11.8032 12.6C12.654 11.1778 13.6817 9.84443 14.8864 8.59999C16.7809 6.64443 18.9444 5.18354 21.377 4.21732C23.8097 3.2511 26.0809 2.95643 28.1906 3.33332C28.5565 5.5111 28.2767 7.85554 27.351 10.3667C26.4253 12.8778 25.0152 15.1111 23.1208 17.0667C21.9368 18.2889 20.6451 19.3502 19.2458 20.2507C17.8465 21.1511 16.3718 21.8564 14.8218 22.3667L9.78433 17.1333ZM18.6968 13.1333C19.192 13.6444 19.8003 13.9 20.5219 13.9C21.2436 13.9 21.8515 13.6444 22.3458 13.1333C22.8409 12.6222 23.0885 11.9947 23.0885 11.2507C23.0885 10.5067 22.8409 9.87865 22.3458 9.36665C21.8506 8.85554 21.2427 8.59999 20.5219 8.59999C19.8012 8.59999 19.1928 8.85554 18.6968 9.36665C18.2017 9.87776 17.9541 10.5058 17.9541 11.2507C17.9541 11.9955 18.2017 12.6231 18.6968 13.1333ZM17.7927 29.1667L15.726 24.2667C17.319 23.6222 18.6809 22.9555 19.8115 22.2667C20.9422 21.5778 22.196 20.6333 23.5729 19.4333L23.8958 21.1667C23.9819 21.6111 23.9604 22.0502 23.8312 22.484C23.702 22.9178 23.4868 23.2898 23.1854 23.6L17.7927 29.1667ZM5.2312 21.4C5.98467 20.6222 6.8996 20.2275 7.97599 20.216C9.05238 20.2044 9.96731 20.588 10.7208 21.3667C11.4743 22.1444 11.851 23.0889 11.851 24.2C11.851 25.3111 11.4743 26.2555 10.7208 27.0333C10.1826 27.5889 9.28402 28.0667 8.02508 28.4667C6.76613 28.8667 5.02755 29.2222 2.80933 29.5333C3.11072 27.2444 3.45516 25.4555 3.84266 24.1667C4.23016 22.8778 4.69301 21.9555 5.2312 21.4Z" fill="white"/>
</svg>
