<svg width="29" height="29" viewBox="0 0 29 29" fill="none" xmlns="http://www.w3.org/2000/svg">
<path d="M4.22925 5.4375H6.41273C7.10845 5.4375 7.45631 5.4375 7.7182 5.62626C7.98009 5.81502 8.09009 6.14503 8.3101 6.80504L9.06258 9.0625" stroke="#004E25" stroke-width="2" stroke-linecap="round"/>
<path d="M21.1459 21.1458H9.72826C9.29222 21.1458 9.0742 21.1458 8.91586 21.0912C8.51595 20.9534 8.246 20.5789 8.24173 20.1559C8.24003 19.9885 8.30897 19.7816 8.44686 19.368V19.368C8.5998 18.9091 8.67627 18.6797 8.78948 18.4912C9.07169 18.0212 9.53444 17.6877 10.0695 17.5686C10.2842 17.5208 10.526 17.5208 11.0097 17.5208H17.5209" stroke="#004E25" stroke-width="2" stroke-linecap="round" stroke-linejoin="round"/>
<path d="M17.6161 17.5208H12.9083C11.6291 17.5208 10.9895 17.5208 10.4886 17.1905C9.98762 16.8602 9.73567 16.2723 9.23176 15.0965L8.43793 13.2443C7.62844 11.3554 7.22369 10.411 7.6683 9.73676C8.11291 9.0625 9.14039 9.0625 11.1954 9.0625H19.6012C21.9003 9.0625 23.0498 9.0625 23.4833 9.80961C23.9169 10.5567 23.3466 11.5548 22.2059 13.5509L21.0891 15.5054C20.5272 16.4888 20.2462 16.9805 19.7806 17.2507C19.3151 17.5208 18.7487 17.5208 17.6161 17.5208Z" stroke="#004E25" stroke-width="2" stroke-linecap="round"/>
<circle cx="20.5416" cy="24.1666" r="1.20833" fill="#004E25"/>
<circle cx="10.8751" cy="24.1666" r="1.20833" fill="#004E25"/>
</svg>
